<svg xmlns="http://www.w3.org/2000/svg" viewBox="0 0 500 500"><g id="freepik--background-complete--inject-65"><path d="M448.42,372.53c4.37-2.26,9.53-2.56,14.39-1.75,2.61.43,5.33,1.21,7.11,3.17s2.11,5.41.07,7.1a6.87,6.87,0,0,1-4.48,1.14c-3.8-.05-8-.72-11.07,1.57-1.73,1.31-2.88,3.48-5,4.12a4.89,4.89,0,0,1-5.39-2.4,8.36,8.36,0,0,1-.61-6.18A9.43,9.43,0,0,1,448.42,372.53Z" style="fill:#ebebeb"></path><path d="M438.39,353.16c2.67,3.83,7.88,2.56,10.29.23s3.43-5.72,4.36-8.94c2.12-7.37,4.26-15.1,2.68-22.61a12.5,12.5,0,0,0-2.89-6.14,6.53,6.53,0,0,0-6.21-2.07c-2.63.69-4.26,3.26-5.43,5.7a53.87,53.87,0,0,0-5.33,23.13c0,3.72.43,7.63,2.53,10.7" style="fill:#ebebeb"></path><path d="M431,358.65c2.9-3.45,3.45-8.48,2.16-12.8s-4.21-8-7.58-11a40.75,40.75,0,0,0-13.58-8,14.42,14.42,0,0,0-6.1-1,6.43,6.43,0,0,0-5.13,3.1c-1.43,2.73-.06,6,1.42,8.73a103.5,103.5,0,0,0,8.92,13.58c2.67,3.45,5.74,6.85,9.81,8.4s8.31,1.38,10.46-1.45" style="fill:#ebebeb"></path><path d="M438.21,410.84a8.51,8.51,0,0,0,.24-1.74c.12-1.26.28-2.85.46-4.74a66.82,66.82,0,0,1,1.07-7,53.47,53.47,0,0,1,2.52-8.2,30.25,30.25,0,0,1,4.2-7.43,15.49,15.49,0,0,1,5.29-4.4,14.56,14.56,0,0,1,4.47-1.39,9.92,9.92,0,0,0,1.73-.25,8,8,0,0,0-1.76,0,13.42,13.42,0,0,0-4.66,1.21,15.66,15.66,0,0,0-5.59,4.44,29.53,29.53,0,0,0-4.34,7.58,50.35,50.35,0,0,0-2.51,8.34,58.62,58.62,0,0,0-.93,7c-.15,2-.2,3.65-.23,4.77A7.61,7.61,0,0,0,438.21,410.84Z" style="fill:#e0e0e0"></path><path d="M438.53,407.19a3.2,3.2,0,0,0,.05-.81c0-.6,0-1.37,0-2.3,0-2,0-4.9.11-8.47.17-7.15.79-14.85,2-25.7,1.12-10.2,2.64-22.07,4.23-29.79.34-1.75.69-3.33,1-4.71s.57-2.59.83-3.55l.54-2.24a4.2,4.2,0,0,0,.14-.8,2.88,2.88,0,0,0-.28.76c-.18.58-.4,1.31-.67,2.2s-.6,2.15-.95,3.53-.74,2.95-1.12,4.71A263.84,263.84,0,0,0,440,367.66c-1.2,10.87-1.73,20.77-1.78,27.94,0,3.58,0,6.48.12,8.49l.15,2.3A4.17,4.17,0,0,0,438.53,407.19Z" style="fill:#e0e0e0"></path><path d="M438.58,388.1a15.32,15.32,0,0,0,0-2.41,65.35,65.35,0,0,0-.73-6.52,86.63,86.63,0,0,0-2.13-9.51,77.09,77.09,0,0,0-4-11.25,60.07,60.07,0,0,0-11.67-18.17,29.36,29.36,0,0,0-2.75-2.55c-.42-.36-.79-.72-1.17-1l-1.07-.73a16,16,0,0,0-2-1.3c-.12.16,2.87,1.91,6.64,5.93a62.93,62.93,0,0,1,11.38,18.11,87.54,87.54,0,0,1,4,11.14c1,3.49,1.73,6.71,2.26,9.41s.78,4.93,1,6.46A15.5,15.5,0,0,0,438.58,388.1Z" style="fill:#e0e0e0"></path><polygon points="420.13 421.77 422.04 447.98 455.71 447.98 457.62 421.77 420.13 421.77" style="fill:#e0e0e0"></polygon><rect x="416.88" y="411.44" width="44.76" height="10.33" style="fill:#e0e0e0"></rect><polygon points="416.88 446.98 416.88 449.84 418.98 449.84 460.9 449.84 460.9 446.98 416.88 446.98" style="fill:#ebebeb"></polygon><polygon points="421.04 454.88 418.98 449.84 459.3 449.84 456.89 454.88 421.04 454.88" style="fill:#e0e0e0"></polygon><path d="M457,430.34s-.05.09-.16.24l-.5.67-2,2.51-.09.11-.08-.12c-1.24-1.7-2.88-4-4.82-6.66h.27l-4.74,6.72-.15.21-.17-.2L439,427.13h.32l-.31.39-5,6.31-.17.21-.15-.22c-1.71-2.42-3.3-4.68-4.75-6.72l.28,0-5.85,6.66-.1.11-.08-.13c-.77-1.29-1.38-2.33-1.83-3.07l-.47-.82a1.21,1.21,0,0,1-.14-.3,2.34,2.34,0,0,1,.19.26l.52.79c.47.74,1.12,1.75,1.92,3h-.18l5.75-6.74.15-.17.13.18,4.79,6.68h-.32l5-6.32.31-.39.16-.2.17.2c2,2.35,3.86,4.62,5.61,6.7l-.32,0,4.8-6.69.14-.19.13.19,4.72,6.74h-.17l2-2.44.55-.64C456.92,430.4,457,430.33,457,430.34Z" style="fill:#f5f5f5"></path><path d="M458.09,421.6c0,.12-8.43.21-18.84.21s-18.84-.09-18.84-.21,8.43-.21,18.84-.21S458.09,421.49,458.09,421.6Z" style="fill:#f5f5f5"></path><path d="M459.79,450.13c0,.11-9.17.21-20.47.21s-20.48-.1-20.48-.21,9.17-.21,20.48-.21S459.79,450,459.79,450.13Z" style="fill:#f5f5f5"></path><path d="M465.85,123.69s-.37,0-1.09-.1l-3.16-.37-12.18-1.41c-2.65-.31-5.59-.64-8.81-.93l-5.05-.49-5.45-.4c-3.77-.34-7.81-.4-12.09-.6-4.29,0-8.82-.09-13.57.19a264,264,0,0,0-30.93,3.25c-1.38.22-2.78.41-4.18.65l-4.23.76c-2.85.52-5.74,1-8.67,1.57-5.84,1.19-11.87,2.31-18,3.68l-9.34,2-9.54,2.16q-9.63,2.16-19.64,4.56t-20.31,4.86l-10.39,2.51L258.65,148a433.76,433.76,0,0,1-81.38,8.77,553.26,553.26,0,0,1-66.8-2.95c-19-2-34.17-4.47-44.63-6.44-5.24-1-9.28-1.85-12-2.46l-3.1-.73c-.7-.17-1-.28-1-.28l1.06.23,3.12.67c2.74.58,6.79,1.41,12,2.37,10.47,1.91,25.69,4.36,44.63,6.28a563.34,563.34,0,0,0,66.77,2.84,437,437,0,0,0,81.27-8.81l10.55-2.39,10.39-2.5q10.31-2.51,20.32-4.86t19.64-4.55L329,131l9.35-2c6.14-1.36,12.18-2.48,18-3.66,2.93-.57,5.83-1,8.68-1.56l4.24-.75c1.4-.24,2.8-.43,4.19-.64a261.54,261.54,0,0,1,31-3.2c4.76-.26,9.29-.16,13.59-.15,4.28.21,8.33.29,12.1.64l5.46.42,5,.51c3.23.31,6.17.65,8.81,1,5.29.61,9.39,1.15,12.17,1.51l3.16.41Z" style="fill:#e0e0e0"></path><path d="M463.66,131.42s-.36,0-1.08-.1l-3.17-.37-12.17-1.41c-2.65-.31-5.59-.64-8.81-.93l-5.05-.49-5.45-.4c-3.77-.34-7.81-.4-12.09-.6-4.29,0-8.82-.09-13.57.19a261.63,261.63,0,0,0-30.93,3.25c-1.38.22-2.78.41-4.18.65l-4.23.76c-2.85.52-5.74,1-8.67,1.57-5.84,1.19-11.87,2.31-18,3.68l-9.33,2-9.54,2.17q-9.64,2.16-19.64,4.56t-20.31,4.86L267,153.33l-10.56,2.39a433.76,433.76,0,0,1-81.38,8.77,553.16,553.16,0,0,1-66.8-3c-19-2-34.17-4.47-44.63-6.44-5.24-1-9.28-1.85-12-2.46l-3.1-.73c-.7-.17-1-.28-1-.28l1.06.23,3.12.67c2.74.58,6.79,1.41,12,2.37,10.47,1.91,25.69,4.36,44.63,6.28A561.4,561.4,0,0,0,175.09,164a436.07,436.07,0,0,0,81.27-8.8l10.55-2.39,10.39-2.51q10.31-2.49,20.32-4.85t19.64-4.55l9.54-2.15,9.34-2c6.15-1.36,12.19-2.48,18-3.66,2.93-.57,5.83-1.05,8.68-1.56l4.24-.75c1.4-.24,2.8-.43,4.19-.64a259.45,259.45,0,0,1,31-3.2c4.75-.26,9.29-.16,13.58-.15,4.29.21,8.34.29,12.11.64l5.46.42,5,.51c3.23.31,6.17.65,8.81,1,5.29.62,9.39,1.16,12.17,1.52l3.16.41Z" style="fill:#e0e0e0"></path><path d="M463.66,139.54l-1.08-.11-3.17-.36-12.17-1.42c-2.65-.31-5.59-.63-8.81-.93l-5.05-.49-5.45-.4c-3.77-.33-7.81-.4-12.09-.59-4.29,0-8.82-.09-13.57.18a263.89,263.89,0,0,0-30.93,3.26c-1.38.22-2.78.41-4.18.65l-4.23.75c-2.85.52-5.74,1-8.67,1.57-5.84,1.19-11.87,2.31-18,3.69l-9.33,2-9.54,2.16c-6.43,1.44-13,3-19.64,4.56s-13.44,3.2-20.31,4.86L267,161.44l-10.56,2.4a435.43,435.43,0,0,1-81.38,8.77,555.22,555.22,0,0,1-66.8-3c-19-2-34.17-4.47-44.63-6.45-5.24-1-9.28-1.84-12-2.46l-3.1-.72c-.7-.17-1-.28-1-.28l1.06.23,3.12.67c2.74.58,6.79,1.41,12,2.36,10.47,1.91,25.69,4.37,44.63,6.28a561.21,561.21,0,0,0,66.77,2.84,436.91,436.91,0,0,0,81.27-8.8l10.55-2.39,10.39-2.51c6.87-1.66,13.65-3.3,20.32-4.85s13.21-3.12,19.64-4.55l9.54-2.16,9.34-2c6.15-1.37,12.19-2.48,18-3.67,2.93-.56,5.83-1,8.68-1.55l4.24-.75c1.4-.24,2.8-.43,4.19-.65a261.41,261.41,0,0,1,31-3.19c4.75-.27,9.29-.16,13.58-.15,4.29.2,8.34.28,12.11.63l5.46.42,5,.52c3.23.31,6.17.65,8.81,1,5.29.62,9.39,1.15,12.17,1.51l3.16.42Z" style="fill:#e0e0e0"></path><path d="M463.66,147.66l-1.08-.11-3.17-.37-12.17-1.41c-2.65-.31-5.59-.63-8.81-.93l-5.05-.49-5.45-.4c-3.77-.34-7.81-.4-12.09-.6-4.29,0-8.82-.08-13.57.19a261.76,261.76,0,0,0-30.93,3.26c-1.38.21-2.78.4-4.18.64l-4.23.76c-2.85.52-5.74,1-8.67,1.57-5.84,1.19-11.87,2.31-18,3.68l-9.33,2-9.54,2.16c-6.43,1.44-13,3-19.64,4.56s-13.44,3.19-20.31,4.86L267,169.56,256.47,172a434.65,434.65,0,0,1-81.38,8.78,557.3,557.3,0,0,1-66.8-2.95c-19-2-34.17-4.48-44.63-6.45-5.24-1-9.28-1.85-12-2.46l-3.1-.73-1-.27,1.06.22,3.12.68c2.74.58,6.79,1.4,12,2.36,10.47,1.91,25.69,4.37,44.63,6.28a563.34,563.34,0,0,0,66.77,2.84,436.12,436.12,0,0,0,81.27-8.81l10.55-2.39,10.39-2.5q10.31-2.51,20.32-4.86t19.64-4.55L326.8,155l9.34-2c6.15-1.36,12.19-2.48,18-3.66,2.93-.56,5.83-1,8.68-1.56l4.24-.75c1.4-.24,2.8-.43,4.19-.64a261.54,261.54,0,0,1,31-3.2c4.75-.26,9.29-.16,13.58-.15,4.29.21,8.34.29,12.11.64l5.46.42,5,.51c3.23.31,6.17.65,8.81,1,5.29.61,9.39,1.15,12.17,1.51l3.16.42C463.3,147.59,463.66,147.66,463.66,147.66Z" style="fill:#e0e0e0"></path><path d="M470,154.1l-1.08-.11-3.17-.37-12.18-1.41c-2.64-.31-5.59-.63-8.81-.93l-5-.49-5.46-.4c-3.77-.34-7.81-.4-12.09-.6-4.28,0-8.81-.08-13.57.19a264,264,0,0,0-30.92,3.26c-1.39.21-2.78.4-4.18.64l-4.24.76c-2.84.52-5.74,1-8.67,1.57-5.84,1.19-11.87,2.31-18,3.68l-9.34,2-9.53,2.16c-6.43,1.44-13,3-19.64,4.56s-13.44,3.19-20.32,4.86L273.32,176l-10.57,2.39a434.55,434.55,0,0,1-81.37,8.78,557.58,557.58,0,0,1-66.81-2.95c-18.95-2-34.17-4.48-44.63-6.45-5.23-1-9.28-1.85-12-2.46l-3.11-.73-1-.27,1.06.22,3.12.68c2.74.58,6.79,1.4,12,2.36,10.47,1.91,25.69,4.37,44.63,6.28a563.06,563.06,0,0,0,66.76,2.84,436,436,0,0,0,81.27-8.81l10.55-2.39,10.39-2.5q10.32-2.51,20.32-4.86t19.65-4.55l9.53-2.15,9.35-2c6.14-1.36,12.18-2.48,18-3.66,2.93-.56,5.83-1,8.67-1.56l4.24-.75c1.41-.24,2.81-.43,4.19-.64a261.75,261.75,0,0,1,31-3.2c4.76-.26,9.3-.16,13.59-.15,4.28.21,8.33.29,12.1.64l5.46.42,5,.51q4.84.48,8.81,1c5.29.61,9.39,1.15,12.17,1.51l3.16.42C469.59,154,470,154.1,470,154.1Z" style="fill:#e0e0e0"></path><path d="M66.1,163.81a4.53,4.53,0,0,1-.36.28,3.71,3.71,0,0,1-1.25.5,4.73,4.73,0,0,1-4.63-1.82,4.4,4.4,0,0,1-.62-3.65A5.47,5.47,0,0,1,62,155.63a5.66,5.66,0,0,1,5,.12,6.28,6.28,0,0,1,2.19,1.8,6.46,6.46,0,0,1,1.17,2.75,7.6,7.6,0,0,1-1.61,6,9.29,9.29,0,0,1-6,3.2,10.56,10.56,0,0,1-7.09-1.72,10.22,10.22,0,0,1-4.31-6.39,10.61,10.61,0,0,1-.08-4.09,10.92,10.92,0,0,1,1.54-3.88,21.08,21.08,0,0,1,6.13-5.91c4.83-3.17,9.9-6.27,15.06-9.54a12.78,12.78,0,0,0,3.43-2.82,4.61,4.61,0,0,0,.93-4,3.39,3.39,0,0,0-3.12-2.29,4.71,4.71,0,0,0-2,.26,5.75,5.75,0,0,0-1.75,1.08A10.4,10.4,0,0,0,69,133.64a23.66,23.66,0,0,0-1.41,3.9,41,41,0,0,0-1.17,8c-.44,10.56-.83,20.08-1.16,28.08a20.22,20.22,0,0,1-.85,5.67,8.06,8.06,0,0,1-3,4.13,5.29,5.29,0,0,1-4.31.91,4.94,4.94,0,0,1-3-2.26,4.45,4.45,0,0,1-.55-2.93,4.82,4.82,0,0,1,.8-2,4.33,4.33,0,0,1,.92-1,2.83,2.83,0,0,1,.38-.25,6,6,0,0,0-1.21,1.3,4.68,4.68,0,0,0-.74,2,4.31,4.31,0,0,0,.58,2.79,4.68,4.68,0,0,0,2.83,2.13,5,5,0,0,0,4.08-.91,7.74,7.74,0,0,0,2.85-4,20.22,20.22,0,0,0,.81-5.59c.29-8,.58-17.51,1-28.09a41.57,41.57,0,0,1,1.17-8.08,23.42,23.42,0,0,1,1.44-4,10.83,10.83,0,0,1,2.52-3.55A6.57,6.57,0,0,1,73,128.7a5.16,5.16,0,0,1,2.27-.29,4.45,4.45,0,0,1,2.18.75,3.6,3.6,0,0,1,1.39,1.9,5.11,5.11,0,0,1-1,4.45,13.22,13.22,0,0,1-3.56,2.94C69.13,141.72,64,144.82,59.23,148a20.74,20.74,0,0,0-6,5.75,10.51,10.51,0,0,0-1.48,3.71,10.17,10.17,0,0,0,.07,3.89,9.75,9.75,0,0,0,4.1,6.12,10.06,10.06,0,0,0,6.77,1.67,8.81,8.81,0,0,0,5.74-3A7.19,7.19,0,0,0,70,160.36a6,6,0,0,0-1.08-2.6,5.82,5.82,0,0,0-2.06-1.71,5.36,5.36,0,0,0-4.77-.16,5.26,5.26,0,0,0-2.6,3.29,4.17,4.17,0,0,0,.54,3.47,4.52,4.52,0,0,0,2.33,1.67,4.45,4.45,0,0,0,2.12.16A4,4,0,0,0,66.1,163.81Z" style="fill:#e0e0e0"></path><path d="M55.12,183c-1-.88-.69-1.73-.25-2.11a5.92,5.92,0,0,1,1.57-.72,3.22,3.22,0,0,0,1.68-3.83,3,3,0,0,0-3.7-1.84,3.81,3.81,0,0,0-2.26,2.61,4.91,4.91,0,0,0,.54,4c.77,1.17,1.36,1.35,3.11,2.57" style="fill:#e0e0e0"></path><path d="M52,162.25c-.47-3.52,1.34-6,4-8.32s6-3.79,9.14-5.45a35.34,35.34,0,0,0,8.78-6.13,17.5,17.5,0,0,0,5-9.28,10.15,10.15,0,0,1-4,4.7,52.65,52.65,0,0,1-5.46,3,91.75,91.75,0,0,0-9.86,6.33,28.12,28.12,0,0,0-6.08,5.48c-3.05,3.88-2.51,6.76-1.57,10,.19-.23.22.9.41.67" style="fill:#e0e0e0"></path><path d="M90.53,182.33a6.89,6.89,0,0,0-4.76-1,7.59,7.59,0,0,0-4.5,2.38,3.28,3.28,0,0,0-1,2.88,3.38,3.38,0,0,0,2.54,2.08,8.94,8.94,0,0,0,5.27-.12,5.38,5.38,0,0,0,3.16-2.47,3,3,0,0,0-.71-3.72" style="fill:#e0e0e0"></path><path d="M96.29,154.44a5.28,5.28,0,0,1,0,1.23c0,.79-.12,1.93-.26,3.33-.26,2.81-.74,6.69-1.47,10.94S93,178,92.27,180.74c-.35,1.37-.65,2.47-.87,3.23a5,5,0,0,1-.41,1.16,5.8,5.8,0,0,1,.21-1.21l.71-3.26c.6-2.76,1.39-6.57,2.13-10.81s1.26-8.09,1.62-10.89c.17-1.31.31-2.42.42-3.31A5.85,5.85,0,0,1,96.29,154.44Z" style="fill:#e0e0e0"></path><path d="M95.5,162.1a15,15,0,0,1,6.16,4.82,9.12,9.12,0,0,1,1.54,7.51,6.63,6.63,0,0,1-5.59,4.89c2.13-1,4.45-1.51,6.49-2.64s3.88-3.07,4-5.4c.08-2-.86-4.15-1.71-5.94-2-4.15-5.71-7.1-9.86-9.17" style="fill:#e0e0e0"></path><path d="M284.46,156.54a6.89,6.89,0,0,0-4.76-1,7.55,7.55,0,0,0-4.5,2.39,3.25,3.25,0,0,0-1,2.87,3.38,3.38,0,0,0,2.54,2.08,8.94,8.94,0,0,0,5.27-.12,5.34,5.34,0,0,0,3.16-2.47,3,3,0,0,0-.71-3.71" style="fill:#e0e0e0"></path><path d="M290.22,128.64a5.28,5.28,0,0,1,0,1.23c0,.79-.12,1.93-.26,3.33-.26,2.82-.74,6.69-1.47,10.94s-1.59,8.07-2.28,10.8c-.35,1.37-.65,2.48-.87,3.23a5.55,5.55,0,0,1-.41,1.17,5.83,5.83,0,0,1,.21-1.22c.19-.87.43-2,.71-3.26.6-2.75,1.39-6.57,2.13-10.81s1.26-8.09,1.62-10.89c.17-1.31.31-2.42.42-3.31A6.05,6.05,0,0,1,290.22,128.64Z" style="fill:#e0e0e0"></path><path d="M289.43,136.31a15,15,0,0,1,6.16,4.81,9.12,9.12,0,0,1,1.54,7.51,6.63,6.63,0,0,1-5.59,4.89c2.13-1,4.45-1.51,6.49-2.64s3.88-3.06,4-5.4c.08-2-.86-4.15-1.71-5.94-2-4.15-5.71-7.1-9.86-9.17" style="fill:#e0e0e0"></path><path d="M121.31,173.28a8.15,8.15,0,0,0-9,2.8,2.52,2.52,0,0,0-.58,2.37,2.71,2.71,0,0,0,1.95,1.3,9,9,0,0,0,4.37.14,5.27,5.27,0,0,0,3.45-2.55,3.76,3.76,0,0,0-.36-4.14" style="fill:#e0e0e0"></path><path d="M141.83,170.5a8.19,8.19,0,0,0-9,2.8,2.52,2.52,0,0,0-.58,2.37,2.7,2.7,0,0,0,2,1.3,9,9,0,0,0,4.37.14,5.28,5.28,0,0,0,3.45-2.54,3.79,3.79,0,0,0-.36-4.15" style="fill:#e0e0e0"></path><path d="M121.43,175.33c-.15,0-.26-5.52-.26-12.33s.11-12.35.26-12.35.26,5.53.26,12.35S121.57,175.33,121.43,175.33Z" style="fill:#e0e0e0"></path><path d="M142.16,172.06c-.14,0-.26-5.53-.26-12.34s.12-12.34.26-12.34.26,5.52.26,12.34S142.31,172.06,142.16,172.06Z" style="fill:#e0e0e0"></path><polygon points="121.43 150.92 142.16 146.86 142.16 151.3 121.43 155.46 121.43 150.92" style="fill:#e0e0e0"></polygon><path d="M215.19,173.85a8.18,8.18,0,0,0-9.33-1.17,2.55,2.55,0,0,0-1.51,1.92,2.66,2.66,0,0,0,1.25,2,8.87,8.87,0,0,0,3.91,1.95,5.29,5.29,0,0,0,4.2-.89,3.78,3.78,0,0,0,1.39-3.92" style="fill:#e0e0e0"></path><path d="M235,179.83a8.18,8.18,0,0,0-9.33-1.17,2.57,2.57,0,0,0-1.51,1.92,2.71,2.71,0,0,0,1.24,2,9,9,0,0,0,3.92,1.94,5.28,5.28,0,0,0,4.2-.88,3.79,3.79,0,0,0,1.39-3.92" style="fill:#e0e0e0"></path><path d="M214.45,175.77c-.14-.06,2.05-5.14,4.88-11.34s5.22-11.18,5.35-11.12-2.05,5.14-4.88,11.34S214.58,175.83,214.45,175.77Z" style="fill:#e0e0e0"></path><path d="M234.67,181.39c-.13-.06,2.06-5.14,4.88-11.34s5.23-11.18,5.36-11.12-2.06,5.13-4.88,11.34S234.8,181.45,234.67,181.39Z" style="fill:#e0e0e0"></path><polygon points="224.57 153.55 245.12 158.46 243.28 162.5 222.69 157.69 224.57 153.55" style="fill:#e0e0e0"></polygon><path d="M157.56,186.24a8.17,8.17,0,0,0-9.36.85,2.51,2.51,0,0,0-1.06,2.19,2.69,2.69,0,0,0,1.63,1.68A8.93,8.93,0,0,0,153,192a5.3,5.3,0,0,0,3.91-1.76,3.78,3.78,0,0,0,.52-4.12" style="fill:#e0e0e0"></path><path d="M164,160.18c.14,0-1.16,6.44-2.91,14.31s-3.27,14.23-3.41,14.19,1.16-6.43,2.9-14.3S163.83,160.15,164,160.18Z" style="fill:#e0e0e0"></path><path d="M261.78,166.92a8.16,8.16,0,0,0-8.36,4.29,2.5,2.5,0,0,0-.17,2.43,2.69,2.69,0,0,0,2.14.94,9,9,0,0,0,4.34-.59,5.36,5.36,0,0,0,3-3.1,3.79,3.79,0,0,0-1.06-4" style="fill:#e0e0e0"></path><path d="M258,140.36c.14,0,1.33,6.4,2.65,14.35s2.29,14.42,2.15,14.45-1.33-6.41-2.66-14.36S257.84,140.38,258,140.36Z" style="fill:#e0e0e0"></path><path d="M383.12,149.87a8.17,8.17,0,0,0-7,6.28,2.5,2.5,0,0,0,.47,2.38,2.66,2.66,0,0,0,2.31.36,8.92,8.92,0,0,0,4-1.69,5.29,5.29,0,0,0,2.07-3.74,3.77,3.77,0,0,0-2.06-3.6" style="fill:#e0e0e0"></path><path d="M400.58,138.81a8.16,8.16,0,0,0-7,6.27,2.52,2.52,0,0,0,.47,2.39,2.72,2.72,0,0,0,2.31.36,9.15,9.15,0,0,0,4-1.69,5.26,5.26,0,0,0,2.06-3.75,3.77,3.77,0,0,0-2.05-3.6" style="fill:#e0e0e0"></path><path d="M384.09,151.68c-.13.06-2.54-4.89-5.39-11.06s-5-11.22-4.91-11.28,2.54,4.89,5.39,11.06S384.22,151.62,384.09,151.68Z" style="fill:#e0e0e0"></path><path d="M401.53,140.08c-.13.06-2.54-4.89-5.38-11.06s-5-11.23-4.92-11.29,2.54,4.9,5.39,11.07S401.66,140,401.53,140.08Z" style="fill:#e0e0e0"></path><polygon points="373.9 129.58 391.02 117.27 392.87 121.28 375.8 133.69 373.9 129.58" style="fill:#e0e0e0"></polygon><polygon points="377.03 136.44 394.15 124.13 396 128.14 378.93 140.55 377.03 136.44" style="fill:#e0e0e0"></polygon><path d="M422.33,138.22a8.16,8.16,0,0,0-8.35,4.27,2.51,2.51,0,0,0-.17,2.42,2.69,2.69,0,0,0,2.14.94,9,9,0,0,0,4.33-.59,5.27,5.27,0,0,0,3-3.09,3.77,3.77,0,0,0-1.05-4" style="fill:#e0e0e0"></path><path d="M418.53,111.74c.15,0,1.33,6.38,2.66,14.31s2.28,14.37,2.13,14.39-1.32-6.38-2.65-14.31S418.39,111.76,418.53,111.74Z" style="fill:#e0e0e0"></path><path d="M361.62,136.46a8.15,8.15,0,0,0-8.35,4.27,2.52,2.52,0,0,0-.17,2.43,2.72,2.72,0,0,0,2.14.94,9.11,9.11,0,0,0,4.33-.6,5.27,5.27,0,0,0,3-3.09,3.78,3.78,0,0,0-1.06-4" style="fill:#e0e0e0"></path><path d="M357.82,110c.14,0,1.33,6.39,2.65,14.31s2.28,14.37,2.14,14.4-1.33-6.39-2.65-14.31S357.68,110,357.82,110Z" style="fill:#e0e0e0"></path><path d="M179.76,196.26a5.66,5.66,0,0,1-.06-1.31V191.4c0-3,0-7.13,0-11.71s-.16-8.71-.24-11.7c0-1.42-.06-2.61-.09-3.55a5.85,5.85,0,0,1,0-1.31,7.45,7.45,0,0,1,.17,1.3c.07.83.16,2,.25,3.54.18,3,.34,7.14.39,11.72s0,8.72-.12,11.72c0,1.5-.11,2.71-.17,3.55A6.28,6.28,0,0,1,179.76,196.26Z" style="fill:#e0e0e0"></path><path d="M185.09,194.47a6.88,6.88,0,0,1,0-1.26c0-.92.05-2.07.09-3.44.06-2.9.12-6.92,0-11.34s-.25-8.44-.41-11.34c-.08-1.37-.14-2.52-.19-3.44a5.54,5.54,0,0,1,0-1.26,6.12,6.12,0,0,1,.21,1.24c.1.81.23,2,.35,3.43.26,2.9.5,6.92.57,11.36s0,8.46-.21,11.36c-.08,1.46-.16,2.63-.24,3.44A5.28,5.28,0,0,1,185.09,194.47Z" style="fill:#e0e0e0"></path><path d="M188.44,183.14a33.7,33.7,0,0,1-5.53,1.8,32.87,32.87,0,0,1-5.66,1.31,32.91,32.91,0,0,1,5.52-1.81A31.82,31.82,0,0,1,188.44,183.14Z" style="fill:#e0e0e0"></path><path d="M189.9,169.26a10.55,10.55,0,0,1-2.3,1,55.3,55.3,0,0,1-5.77,1.68,57.87,57.87,0,0,1-5.91,1.08,11.25,11.25,0,0,1-2.49.17,12.68,12.68,0,0,1,2.43-.53c1.5-.28,3.58-.69,5.85-1.23s4.31-1.1,5.78-1.52A12.62,12.62,0,0,1,189.9,169.26Z" style="fill:#e0e0e0"></path><path d="M328.21,173.32a6.76,6.76,0,0,1-.5-1.21c-.33-.88-.73-2-1.21-3.33-1-2.82-2.42-6.72-4-11s-3.13-8.13-4.24-10.92c-.51-1.32-1-2.43-1.29-3.3a7,7,0,0,1-.42-1.24,5.54,5.54,0,0,1,.61,1.16c.35.76.85,1.87,1.44,3.24,1.2,2.76,2.77,6.59,4.38,10.88s3,8.2,3.89,11.06c.47,1.42.83,2.58,1.06,3.39A7,7,0,0,1,328.21,173.32Z" style="fill:#e0e0e0"></path><path d="M332.61,169.82a6.89,6.89,0,0,1-.46-1.18c-.29-.87-.66-2-1.1-3.26-.93-2.75-2.24-6.54-3.82-10.68s-3.13-7.84-4.27-10.51L321.61,141a6.14,6.14,0,0,1-.45-1.18,4.79,4.79,0,0,1,.63,1.1c.38.72.89,1.78,1.51,3.1,1.23,2.63,2.83,6.32,4.41,10.47s2.85,8,3.69,10.76c.42,1.39.74,2.52,1,3.31A5.52,5.52,0,0,1,332.61,169.82Z" style="fill:#e0e0e0"></path><path d="M331.88,158a33.43,33.43,0,0,1-4.58,3.59,32.89,32.89,0,0,1-4.87,3.16,32.66,32.66,0,0,1,4.57-3.59A33.06,33.06,0,0,1,331.88,158Z" style="fill:#e0e0e0"></path><path d="M328.51,144.48a10.8,10.8,0,0,1-1.83,1.69,59,59,0,0,1-10,6.59,9.77,9.77,0,0,1-2.28,1,14.13,14.13,0,0,1,2.1-1.32c1.32-.78,3.13-1.87,5.08-3.15s3.68-2.51,4.91-3.41A13.08,13.08,0,0,1,328.51,144.48Z" style="fill:#e0e0e0"></path><path d="M463.56,190.48l-1.08-.11-3.17-.37-12.18-1.41c-2.64-.31-5.59-.63-8.81-.93l-5-.49-5.46-.4c-3.76-.34-7.81-.4-12.09-.6-4.28,0-8.81-.08-13.56.19a263.89,263.89,0,0,0-30.93,3.26c-1.38.21-2.78.4-4.18.65l-4.24.75c-2.84.52-5.74,1-8.67,1.57-5.84,1.19-11.87,2.31-18,3.68l-9.34,2-9.53,2.16c-6.43,1.44-13,3-19.64,4.56s-13.44,3.19-20.32,4.86l-10.38,2.51-10.57,2.39A434.55,434.55,0,0,1,175,223.55a557.58,557.58,0,0,1-66.81-3c-19-2-34.17-4.48-44.63-6.45-5.23-1-9.28-1.85-12-2.46L48.43,211l-1-.27,1.06.22,3.12.68c2.74.58,6.79,1.4,12,2.36,10.47,1.91,25.69,4.37,44.63,6.28A560.94,560.94,0,0,0,175,223.07a436,436,0,0,0,81.27-8.81l10.55-2.39,10.39-2.5q10.32-2.51,20.32-4.86T317.16,200l9.54-2.15,9.34-2c6.14-1.36,12.18-2.48,18-3.66,2.93-.56,5.83-1,8.67-1.56l4.24-.75c1.41-.24,2.81-.43,4.19-.64a261.75,261.75,0,0,1,31-3.2c4.76-.26,9.3-.16,13.59-.15,4.29.21,8.33.29,12.1.64l5.46.42,5,.51q4.85.48,8.81,1c5.29.61,9.39,1.15,12.17,1.51l3.16.42C463.2,190.41,463.56,190.48,463.56,190.48Z" style="fill:#e0e0e0"></path><path d="M461.38,198.21l-1.08-.11-3.17-.37L445,196.32c-2.64-.31-5.59-.63-8.81-.93l-5-.49-5.46-.4c-3.77-.34-7.81-.4-12.09-.6-4.28,0-8.82-.08-13.57.19a263.73,263.73,0,0,0-30.92,3.26c-1.39.21-2.78.4-4.19.64l-4.23.76c-2.84.52-5.74,1-8.67,1.57-5.84,1.19-11.87,2.31-18,3.68l-9.34,2-9.53,2.16c-6.43,1.44-13,3-19.64,4.56s-13.44,3.19-20.32,4.86l-10.38,2.51-10.57,2.39a434.55,434.55,0,0,1-81.37,8.78A557.58,557.58,0,0,1,106,228.33c-19-2-34.17-4.48-44.63-6.45-5.23-1-9.28-1.85-12-2.46l-3.11-.73c-.7-.17-1-.27-1-.27l1.06.22,3.12.68c2.74.58,6.79,1.4,12,2.36C71.88,223.59,87.1,226.05,106,228a563.06,563.06,0,0,0,66.76,2.84A436,436,0,0,0,254.07,222l10.55-2.39L275,217.1q10.31-2.5,20.32-4.86T315,207.69l9.53-2.15,9.35-2c6.14-1.36,12.18-2.48,18-3.66,2.93-.56,5.83-1,8.67-1.56l4.24-.75c1.41-.24,2.81-.43,4.19-.64a261.75,261.75,0,0,1,31-3.2c4.76-.26,9.3-.16,13.59-.15,4.28.21,8.33.29,12.1.64l5.46.42,5,.51c3.23.31,6.17.65,8.81,1,5.29.61,9.39,1.15,12.17,1.51l3.16.42C461,198.14,461.38,198.21,461.38,198.21Z" style="fill:#e0e0e0"></path><path d="M461.38,206.32s-.37,0-1.08-.1l-3.17-.37L445,204.44c-2.64-.31-5.59-.64-8.81-.93l-5-.5-5.46-.39c-3.77-.34-7.81-.41-12.09-.6-4.28,0-8.82-.09-13.57.19a261.47,261.47,0,0,0-30.92,3.25c-1.39.22-2.78.41-4.19.65l-4.23.76c-2.84.51-5.74,1-8.67,1.57-5.84,1.19-11.87,2.31-18,3.68l-9.34,2-9.53,2.16q-9.64,2.18-19.64,4.57c-6.67,1.55-13.44,3.19-20.32,4.86l-10.38,2.51-10.57,2.39a434.49,434.49,0,0,1-81.37,8.77A555.5,555.5,0,0,1,106,236.44c-19-2-34.17-4.47-44.63-6.44-5.23-1-9.28-1.85-12-2.47l-3.11-.72c-.7-.17-1-.28-1-.28l1.06.23,3.12.67c2.74.58,6.79,1.41,12,2.37,10.47,1.91,25.69,4.36,44.63,6.28a563.25,563.25,0,0,0,66.76,2.83,436,436,0,0,0,81.27-8.8l10.55-2.39L275,225.21c6.87-1.66,13.65-3.3,20.32-4.85s13.22-3.11,19.65-4.55l9.53-2.15,9.35-2c6.14-1.37,12.18-2.48,18-3.66,2.93-.57,5.83-1.05,8.67-1.56l4.24-.75c1.41-.24,2.81-.43,4.19-.64a259.66,259.66,0,0,1,31-3.2c4.76-.26,9.3-.16,13.59-.15,4.28.21,8.33.29,12.1.64l5.46.42,5,.51c3.23.31,6.17.65,8.81,1,5.29.62,9.39,1.16,12.17,1.52l3.16.41Z" style="fill:#e0e0e0"></path><path d="M461.38,214.44l-1.08-.11-3.17-.36L445,212.55c-2.64-.31-5.59-.63-8.81-.93l-5-.49-5.46-.4c-3.77-.33-7.81-.4-12.09-.59-4.28,0-8.82-.09-13.57.18a263.73,263.73,0,0,0-30.92,3.26c-1.39.22-2.78.41-4.19.65l-4.23.75c-2.84.52-5.74,1-8.67,1.57-5.84,1.19-11.87,2.31-18,3.69l-9.34,2-9.53,2.16c-6.43,1.44-13,3-19.64,4.56s-13.44,3.2-20.32,4.86l-10.38,2.51-10.57,2.4a435.33,435.33,0,0,1-81.37,8.77A557.58,557.58,0,0,1,106,244.56c-19-2-34.17-4.48-44.63-6.45-5.23-1-9.28-1.84-12-2.46l-3.11-.72-1-.28,1.06.22,3.12.68c2.74.58,6.79,1.41,12,2.36,10.47,1.91,25.69,4.37,44.63,6.28A560.94,560.94,0,0,0,172.8,247a436.82,436.82,0,0,0,81.27-8.8l10.55-2.39L275,233.33q10.31-2.51,20.32-4.85c6.66-1.58,13.22-3.12,19.65-4.55l9.53-2.16,9.35-2c6.14-1.37,12.18-2.49,18-3.67,2.93-.56,5.83-1,8.67-1.56l4.24-.75c1.41-.23,2.81-.42,4.19-.64a263.87,263.87,0,0,1,31-3.2c4.76-.26,9.3-.15,13.59-.15,4.28.21,8.33.29,12.1.64l5.46.42,5,.52c3.23.31,6.17.65,8.81,1,5.29.61,9.39,1.15,12.17,1.51l3.16.42Z" style="fill:#e0e0e0"></path><path d="M467.66,220.88l-1.08-.11-3.17-.36L451.23,219c-2.64-.31-5.58-.63-8.81-.93l-5-.49-5.46-.4c-3.76-.33-7.81-.4-12.09-.59-4.28,0-8.81-.09-13.56.18A263.89,263.89,0,0,0,375.34,220c-1.38.22-2.78.41-4.18.65l-4.24.75c-2.84.52-5.74,1-8.66,1.57-5.84,1.19-11.88,2.31-18,3.69l-9.34,2-9.53,2.16c-6.43,1.44-13,3-19.64,4.56s-13.44,3.2-20.31,4.86L271,242.78l-10.57,2.4A435.25,435.25,0,0,1,179.09,254,557.58,557.58,0,0,1,112.28,251c-18.94-2-34.16-4.48-44.63-6.45-5.23-1-9.27-1.84-12-2.46l-3.1-.72-1.06-.28,1.07.22,3.11.68c2.74.58,6.79,1.41,12,2.36,10.47,1.91,25.69,4.37,44.63,6.28a561,561,0,0,0,66.76,2.84,436.93,436.93,0,0,0,81.28-8.8q5.29-1.21,10.55-2.39l10.38-2.51c6.88-1.66,13.65-3.3,20.32-4.85s13.22-3.12,19.65-4.55l9.54-2.16,9.34-2c6.15-1.37,12.19-2.48,18-3.67,2.93-.56,5.83-1,8.68-1.56l4.24-.75c1.4-.23,2.8-.42,4.18-.64a264.09,264.09,0,0,1,31-3.2c4.76-.26,9.3-.15,13.59-.15,4.29.21,8.34.29,12.11.64l5.46.42,5,.52c3.22.31,6.16.65,8.81,1,5.29.61,9.39,1.15,12.17,1.51l3.16.42Z" style="fill:#e0e0e0"></path><path d="M63.82,230.59a4.46,4.46,0,0,1-.37.29,3.74,3.74,0,0,1-1.25.49,4.5,4.5,0,0,1-2.18-.12,4.65,4.65,0,0,1-2.45-1.7A4.36,4.36,0,0,1,57,225.9a5.48,5.48,0,0,1,2.7-3.49,5.69,5.69,0,0,1,5,.12,6.28,6.28,0,0,1,2.19,1.8,6.51,6.51,0,0,1,1.17,2.75,7.6,7.6,0,0,1-1.61,6,9.3,9.3,0,0,1-6,3.21,10.58,10.58,0,0,1-7.09-1.73,10.23,10.23,0,0,1-4.31-6.39,10.81,10.81,0,0,1-.08-4.09,11.19,11.19,0,0,1,1.54-3.88,21.21,21.21,0,0,1,6.13-5.91c4.83-3.17,9.91-6.27,15.06-9.54A12.6,12.6,0,0,0,75.14,202a4.6,4.6,0,0,0,.93-4A3.4,3.4,0,0,0,73,195.7a4.8,4.8,0,0,0-2,.26,6,6,0,0,0-1.76,1.09,10.22,10.22,0,0,0-2.4,3.38,23.28,23.28,0,0,0-1.42,3.89,41,41,0,0,0-1.17,8c-.43,10.57-.82,20.08-1.15,28.08a20.22,20.22,0,0,1-.86,5.67,8,8,0,0,1-3,4.13,5.29,5.29,0,0,1-4.31.91,4.85,4.85,0,0,1-2.94-2.26,4.49,4.49,0,0,1-.56-2.92,4.94,4.94,0,0,1,.8-2,4.24,4.24,0,0,1,.92-1,1.79,1.79,0,0,1,.39-.25,5.09,5.09,0,0,0-1.22,1.29,4.92,4.92,0,0,0-.74,2,4.35,4.35,0,0,0,.58,2.8,4.7,4.7,0,0,0,2.84,2.12,5,5,0,0,0,4.08-.91,7.7,7.7,0,0,0,2.85-4,20.54,20.54,0,0,0,.8-5.58c.3-8,.58-17.52,1-28.1a42.25,42.25,0,0,1,1.17-8.07,23.52,23.52,0,0,1,1.44-4,11.08,11.08,0,0,1,2.52-3.55,6.49,6.49,0,0,1,1.92-1.18,5.25,5.25,0,0,1,2.26-.29,4.59,4.59,0,0,1,2.19.75,3.53,3.53,0,0,1,1.38,1.9,5.1,5.1,0,0,1-1,4.45A12.89,12.89,0,0,1,72,205.23c-5.15,3.27-10.25,6.38-15,9.52a20.77,20.77,0,0,0-6,5.76,10.57,10.57,0,0,0-1.48,3.7,10.23,10.23,0,0,0,.07,3.9,9.76,9.76,0,0,0,4.1,6.11,10.15,10.15,0,0,0,6.78,1.68,8.92,8.92,0,0,0,5.74-3,7.18,7.18,0,0,0,1.56-5.72,6.16,6.16,0,0,0-1.09-2.6,5.92,5.92,0,0,0-2.06-1.71,5.34,5.34,0,0,0-4.76-.16A5.22,5.22,0,0,0,57.2,226a4.17,4.17,0,0,0,.54,3.47,4.64,4.64,0,0,0,4.44,1.84A4.24,4.24,0,0,0,63.82,230.59Z" style="fill:#e0e0e0"></path><path d="M52.83,249.83c-.95-.89-.68-1.73-.25-2.12a6.07,6.07,0,0,1,1.57-.72,3.18,3.18,0,0,0,1.68-3.82,3,3,0,0,0-3.7-1.84,3.81,3.81,0,0,0-2.26,2.61,4.92,4.92,0,0,0,.55,4c.76,1.16,1.36,1.34,3.1,2.57" style="fill:#e0e0e0"></path><path d="M49.66,229c-.47-3.53,1.34-6,4-8.33s6-3.79,9.15-5.45a35.06,35.06,0,0,0,8.77-6.12,17.42,17.42,0,0,0,5-9.29,10.17,10.17,0,0,1-4,4.71,54.51,54.51,0,0,1-5.46,3,93.86,93.86,0,0,0-9.86,6.34,28.33,28.33,0,0,0-6.08,5.48c-3.05,3.88-2.51,6.75-1.56,10,.19-.22.22.9.41.68" style="fill:#e0e0e0"></path><path d="M281.3,225.06a6.9,6.9,0,0,0-4.76-1,7.53,7.53,0,0,0-4.5,2.38,3.28,3.28,0,0,0-1,2.88,3.37,3.37,0,0,0,2.53,2.08,8.93,8.93,0,0,0,5.27-.12,5.35,5.35,0,0,0,3.16-2.47,3,3,0,0,0-.7-3.72" style="fill:#e0e0e0"></path><path d="M287.06,197.17a5.28,5.28,0,0,1,0,1.23c0,.79-.13,1.93-.26,3.33-.26,2.81-.74,6.69-1.48,10.94s-1.58,8.06-2.27,10.8c-.35,1.37-.65,2.47-.88,3.23a5.41,5.41,0,0,1-.4,1.16,5.29,5.29,0,0,1,.2-1.21c.2-.87.43-2,.72-3.26.6-2.76,1.39-6.57,2.12-10.81s1.27-8.09,1.62-10.89c.17-1.31.31-2.42.43-3.31A5.11,5.11,0,0,1,287.06,197.17Z" style="fill:#e0e0e0"></path><path d="M286.26,204.83a15,15,0,0,1,6.17,4.82,9.15,9.15,0,0,1,1.53,7.51,6.61,6.61,0,0,1-5.58,4.89c2.12-1,4.44-1.51,6.49-2.64s3.88-3.07,4-5.4c.07-2-.87-4.15-1.71-5.94-2-4.15-5.71-7.1-9.87-9.17" style="fill:#e0e0e0"></path><path d="M95.56,237A8.15,8.15,0,0,0,87,240.9a2.52,2.52,0,0,0-.27,2.42,2.7,2.7,0,0,0,2.11,1,8.91,8.91,0,0,0,4.35-.42,5.26,5.26,0,0,0,3.09-3,3.78,3.78,0,0,0-.89-4.06" style="fill:#e0e0e0"></path><path d="M115.56,231.56A8.19,8.19,0,0,0,107,235.5a2.52,2.52,0,0,0-.26,2.42,2.7,2.7,0,0,0,2.1,1,9,9,0,0,0,4.36-.42,5.26,5.26,0,0,0,3.09-3,3.78,3.78,0,0,0-.89-4.06" style="fill:#e0e0e0"></path><path d="M96,239c-.14,0-1-5.44-1.85-12.2s-1.47-12.25-1.33-12.27,1,5.44,1.85,12.2S96.09,239,96,239Z" style="fill:#e0e0e0"></path><path d="M116.09,233.06c-.14,0-1-5.44-1.85-12.2s-1.47-12.25-1.33-12.27,1,5.44,1.85,12.2S116.23,233,116.09,233.06Z" style="fill:#e0e0e0"></path><polygon points="92.8 214.77 112.84 208.08 113.42 212.48 93.39 219.28 92.8 214.77" style="fill:#e0e0e0"></polygon><path d="M226.14,230.5a8.16,8.16,0,0,0-9.12,2.25,2.53,2.53,0,0,0-.72,2.33,2.69,2.69,0,0,0,1.87,1.41,9,9,0,0,0,4.36.41,5.3,5.3,0,0,0,3.6-2.33,3.8,3.8,0,0,0-.11-4.16" style="fill:#e0e0e0"></path><path d="M246.8,229a8.16,8.16,0,0,0-9.12,2.25,2.5,2.5,0,0,0-.72,2.33,2.71,2.71,0,0,0,1.87,1.41,9,9,0,0,0,4.35.41,5.31,5.31,0,0,0,3.6-2.33,3.78,3.78,0,0,0-.11-4.16" style="fill:#e0e0e0"></path><path d="M226.14,232.55c-.14,0,.07-5.53.49-12.33s.86-12.31,1-12.3-.07,5.53-.48,12.33S226.28,232.56,226.14,232.55Z" style="fill:#e0e0e0"></path><path d="M247,230.54c-.15,0,.07-5.53.48-12.33s.86-12.32,1-12.31-.08,5.53-.49,12.34S247.18,230.55,247,230.54Z" style="fill:#e0e0e0"></path><polygon points="227.62 208.19 248.56 205.39 248.29 209.82 227.34 212.72 227.62 208.19" style="fill:#e0e0e0"></polygon><path d="M137.07,251.17a8.17,8.17,0,0,0-9.36.85,2.5,2.5,0,0,0-1.06,2.19,2.71,2.71,0,0,0,1.63,1.68,8.93,8.93,0,0,0,4.25,1.06,5.3,5.3,0,0,0,3.91-1.76,3.8,3.8,0,0,0,.52-4.13" style="fill:#e0e0e0"></path><path d="M143.48,225.11c.14,0-1.16,6.44-2.91,14.31s-3.27,14.22-3.41,14.19,1.16-6.43,2.9-14.31S143.34,225.08,143.48,225.11Z" style="fill:#e0e0e0"></path><path d="M189,235.19a8.17,8.17,0,0,0-8.36,4.28,2.54,2.54,0,0,0-.17,2.44,2.73,2.73,0,0,0,2.15.94,9,9,0,0,0,4.33-.6,5.28,5.28,0,0,0,3-3.1,3.79,3.79,0,0,0-1.06-4" style="fill:#e0e0e0"></path><path d="M185.2,208.62c.14,0,1.33,6.41,2.66,14.36s2.28,14.42,2.14,14.44-1.33-6.4-2.66-14.36S185.06,208.64,185.2,208.62Z" style="fill:#e0e0e0"></path><path d="M420.08,189.41a8.16,8.16,0,0,0-8.35,4.27,2.51,2.51,0,0,0-.17,2.42,2.69,2.69,0,0,0,2.15.94,8.94,8.94,0,0,0,4.32-.59,5.32,5.32,0,0,0,3-3.09,3.77,3.77,0,0,0-1.06-4" style="fill:#e0e0e0"></path><path d="M416.29,162.93c.14,0,1.32,6.38,2.65,14.31s2.28,14.37,2.14,14.39-1.33-6.38-2.66-14.31S416.14,163,416.29,162.93Z" style="fill:#e0e0e0"></path><path d="M394.21,197.49a8.18,8.18,0,0,0-8.36,4.27,2.52,2.52,0,0,0-.16,2.43,2.71,2.71,0,0,0,2.14.94,9,9,0,0,0,4.33-.6,5.31,5.31,0,0,0,3-3.08,3.77,3.77,0,0,0-1.06-4" style="fill:#e0e0e0"></path><path d="M390.41,171c.14,0,1.33,6.39,2.65,14.31s2.28,14.37,2.14,14.4-1.33-6.38-2.65-14.31S390.27,171,390.41,171Z" style="fill:#e0e0e0"></path><path d="M365.83,211.2a8.16,8.16,0,0,0-8.35,4.27,2.53,2.53,0,0,0-.17,2.42,2.69,2.69,0,0,0,2.15.94,8.94,8.94,0,0,0,4.32-.59,5.29,5.29,0,0,0,3-3.09,3.77,3.77,0,0,0-1.06-4" style="fill:#e0e0e0"></path><path d="M362,184.72c.14,0,1.33,6.38,2.65,14.31s2.28,14.37,2.14,14.39-1.33-6.38-2.66-14.31S361.89,184.74,362,184.72Z" style="fill:#e0e0e0"></path><path d="M159.78,262.79a5.94,5.94,0,0,1-.07-1.31c0-.94,0-2.13,0-3.55,0-3,0-7.13,0-11.71s-.16-8.71-.24-11.7c0-1.42-.07-2.61-.09-3.55a7.45,7.45,0,0,1,0-1.31,5.6,5.6,0,0,1,.17,1.3c.08.83.17,2,.25,3.54.18,3,.35,7.14.4,11.72s0,8.72-.12,11.72c-.06,1.5-.12,2.71-.17,3.55A7.31,7.31,0,0,1,159.78,262.79Z" style="fill:#e0e0e0"></path><path d="M165.11,261a5.9,5.9,0,0,1,0-1.26c0-.92,0-2.07.08-3.44.07-2.91.13-6.92.06-11.35s-.26-8.43-.42-11.33c-.07-1.37-.14-2.52-.19-3.44a6.41,6.41,0,0,1,0-1.26,5.34,5.34,0,0,1,.21,1.24c.11.81.23,2,.36,3.43.25,2.9.5,6.91.57,11.36s-.05,8.46-.21,11.36c-.08,1.45-.17,2.63-.25,3.44A5,5,0,0,1,165.11,261Z" style="fill:#e0e0e0"></path><path d="M168.45,249.66a32.13,32.13,0,0,1-5.52,1.81,33.09,33.09,0,0,1-5.66,1.31,32.13,32.13,0,0,1,5.52-1.81A33.58,33.58,0,0,1,168.45,249.66Z" style="fill:#e0e0e0"></path><path d="M169.92,235.79a10.85,10.85,0,0,1-2.3,1,56,56,0,0,1-5.77,1.68,57.5,57.5,0,0,1-5.92,1.08,11.25,11.25,0,0,1-2.49.17,12.93,12.93,0,0,1,2.43-.53c1.51-.28,3.58-.69,5.86-1.23s4.31-1.1,5.78-1.52A12.43,12.43,0,0,1,169.92,235.79Z" style="fill:#e0e0e0"></path><path d="M336,234a6.82,6.82,0,0,1-.5-1.2l-1.21-3.34c-1-2.82-2.42-6.72-4-11s-3.13-8.13-4.24-10.92c-.51-1.32-1-2.42-1.29-3.3a7,7,0,0,1-.42-1.24,5.92,5.92,0,0,1,.61,1.16c.35.76.85,1.87,1.45,3.24,1.19,2.76,2.76,6.59,4.37,10.88s3,8.2,3.89,11.06c.47,1.43.83,2.59,1.06,3.39A6,6,0,0,1,336,234Z" style="fill:#e0e0e0"></path><path d="M340.35,230.51a6.89,6.89,0,0,1-.46-1.18c-.29-.87-.66-2-1.1-3.26-.92-2.75-2.24-6.54-3.82-10.68s-3.13-7.84-4.27-10.51l-1.35-3.17a6.14,6.14,0,0,1-.45-1.18,5.11,5.11,0,0,1,.63,1.1c.38.72.89,1.78,1.51,3.1,1.23,2.63,2.83,6.33,4.41,10.47s2.85,8,3.69,10.76c.42,1.39.75,2.52.95,3.31A5.52,5.52,0,0,1,340.35,230.51Z" style="fill:#e0e0e0"></path><path d="M339.62,218.71A32.55,32.55,0,0,1,335,222.3a32.89,32.89,0,0,1-4.87,3.16,33.54,33.54,0,0,1,4.57-3.59A33.06,33.06,0,0,1,339.62,218.71Z" style="fill:#e0e0e0"></path><path d="M336.25,205.17a10.8,10.8,0,0,1-1.83,1.69,59,59,0,0,1-10,6.59,10.77,10.77,0,0,1-2.28,1,12.72,12.72,0,0,1,2.1-1.33c1.32-.78,3.13-1.87,5.08-3.15s3.68-2.51,4.92-3.41A12.79,12.79,0,0,1,336.25,205.17Z" style="fill:#e0e0e0"></path><path d="M464.62,57.67l-1.08-.1-3.17-.37-12.18-1.42c-2.64-.3-5.58-.63-8.81-.92l-5-.5L428.89,54c-3.77-.34-7.81-.41-12.1-.6-4.28,0-8.81-.09-13.56.19a261.63,261.63,0,0,0-30.93,3.25c-1.38.22-2.78.41-4.18.65l-4.24.76c-2.84.51-5.74,1-8.66,1.57-5.84,1.19-11.88,2.31-18,3.68l-9.34,2-9.53,2.16q-9.65,2.17-19.64,4.57c-6.67,1.55-13.44,3.19-20.31,4.86L268,79.58,257.42,82a434.41,434.41,0,0,1-81.37,8.77,555.5,555.5,0,0,1-66.81-2.95c-18.94-2-34.16-4.47-44.63-6.44-5.23-1-9.27-1.85-12-2.47l-3.1-.72c-.7-.17-1.06-.28-1.06-.28l1.07.23,3.11.67c2.74.58,6.79,1.41,12,2.37,10.47,1.91,25.69,4.36,44.63,6.28A563.35,563.35,0,0,0,176,90.26a436.08,436.08,0,0,0,81.28-8.8l10.55-2.39,10.38-2.51c6.88-1.66,13.65-3.3,20.32-4.85s13.22-3.11,19.65-4.55L327.76,65l9.34-2c6.15-1.37,12.19-2.48,18-3.66,2.93-.57,5.83-1.05,8.68-1.56l4.24-.75c1.4-.24,2.8-.43,4.18-.64a259.87,259.87,0,0,1,31-3.2c4.76-.26,9.3-.16,13.59-.15,4.29.21,8.34.29,12.11.63l5.46.43,5,.51c3.22.31,6.16.65,8.81,1,5.29.62,9.39,1.15,12.17,1.52l3.16.41Z" style="fill:#e0e0e0"></path><path d="M462.44,65.4l-1.08-.11-3.17-.36L446,63.51c-2.64-.31-5.58-.63-8.81-.92l-5-.5-5.46-.4c-3.76-.33-7.81-.4-12.09-.59-4.28,0-8.81-.09-13.56.18a263.89,263.89,0,0,0-30.93,3.26c-1.38.22-2.78.41-4.18.65L361.7,66c-2.84.51-5.74,1-8.66,1.57-5.85,1.18-11.88,2.31-18,3.68l-9.34,2-9.53,2.16q-9.64,2.17-19.64,4.57c-6.67,1.55-13.44,3.19-20.32,4.86l-10.38,2.5-10.57,2.4a434.41,434.41,0,0,1-81.37,8.77,555.5,555.5,0,0,1-66.81-3c-18.94-2-34.16-4.47-44.63-6.44-5.23-1-9.27-1.85-12-2.47l-3.11-.72c-.69-.17-1.05-.28-1.05-.28l1.07.23,3.11.67c2.74.58,6.79,1.41,12,2.37,10.47,1.91,25.69,4.36,44.63,6.28A563.35,563.35,0,0,0,173.86,98a435.89,435.89,0,0,0,81.27-8.8l10.56-2.39,10.38-2.51c6.88-1.66,13.65-3.3,20.32-4.85s13.22-3.11,19.65-4.55l9.54-2.15,9.34-2c6.15-1.37,12.18-2.48,18-3.66,2.93-.57,5.83-1,8.68-1.56l4.24-.75c1.4-.24,2.8-.43,4.18-.64a259.87,259.87,0,0,1,31-3.2c4.76-.26,9.3-.16,13.59-.15,4.29.21,8.34.28,12.1.63l5.46.42,5.05.52c3.22.31,6.16.65,8.81,1,5.29.62,9.38,1.15,12.16,1.51l3.17.42Z" style="fill:#e0e0e0"></path><path d="M462.44,73.52l-1.08-.11L458.19,73,446,71.63c-2.64-.31-5.58-.63-8.81-.93l-5-.49-5.46-.4c-3.76-.33-7.81-.4-12.09-.59-4.28,0-8.81-.09-13.56.18a263.89,263.89,0,0,0-30.93,3.26c-1.38.21-2.78.41-4.18.65l-4.24.75c-2.84.52-5.74,1-8.66,1.57-5.85,1.19-11.88,2.31-18,3.68l-9.34,2-9.53,2.16c-6.43,1.44-13,3-19.64,4.56s-13.44,3.2-20.32,4.86l-10.38,2.51-10.57,2.39a434.46,434.46,0,0,1-81.37,8.78,557.58,557.58,0,0,1-66.81-3c-18.94-2-34.16-4.48-44.63-6.45-5.23-1-9.27-1.85-12-2.46L47.31,94l-1.05-.28,1.07.22,3.11.68c2.74.58,6.79,1.41,12,2.36,10.47,1.91,25.69,4.37,44.63,6.28a561,561,0,0,0,66.76,2.84,435.94,435.94,0,0,0,81.27-8.81l10.56-2.38,10.38-2.51q10.32-2.5,20.32-4.86T316,83l9.54-2.15,9.34-2c6.15-1.37,12.18-2.49,18-3.67,2.93-.56,5.83-1,8.68-1.56l4.24-.75c1.4-.23,2.8-.42,4.18-.64A264.09,264.09,0,0,1,401,69c4.76-.26,9.3-.16,13.59-.15,4.29.21,8.34.29,12.1.64l5.46.42,5.05.51q4.83.48,8.81,1c5.29.61,9.38,1.15,12.16,1.51l3.17.42C462.08,73.45,462.44,73.52,462.44,73.52Z" style="fill:#e0e0e0"></path><path d="M462.44,81.63s-.37,0-1.08-.1l-3.17-.37L446,79.75c-2.64-.31-5.58-.64-8.81-.93l-5-.49-5.46-.4c-3.76-.34-7.81-.4-12.09-.6-4.28,0-8.81-.09-13.56.19a263.75,263.75,0,0,0-30.93,3.25c-1.38.22-2.78.41-4.18.65l-4.24.76c-2.84.52-5.74,1-8.66,1.57-5.85,1.19-11.88,2.31-18,3.68l-9.34,2-9.53,2.16q-9.64,2.16-19.64,4.56T276.19,101l-10.38,2.51-10.57,2.39a433.57,433.57,0,0,1-81.37,8.77,553.43,553.43,0,0,1-66.81-3c-18.94-2-34.16-4.47-44.63-6.44-5.23-1-9.27-1.85-12-2.46l-3.11-.73c-.69-.17-1.05-.28-1.05-.28l1.07.23,3.11.67c2.74.58,6.79,1.41,12,2.37,10.47,1.91,25.69,4.36,44.63,6.28a563.16,563.16,0,0,0,66.76,2.84,436.79,436.79,0,0,0,81.27-8.81L265.69,103l10.38-2.5q10.32-2.5,20.32-4.86T316,91.12L325.58,89l9.34-2c6.15-1.36,12.18-2.48,18-3.66,2.93-.57,5.83-1,8.68-1.56l4.24-.75c1.4-.24,2.8-.43,4.18-.64a262,262,0,0,1,31-3.2c4.76-.26,9.3-.16,13.59-.15,4.29.21,8.34.29,12.1.64l5.46.42,5.05.51c3.22.31,6.16.65,8.81,1,5.29.61,9.38,1.15,12.16,1.51l3.17.41Z" style="fill:#e0e0e0"></path><path d="M468.73,88.07s-.37,0-1.09-.1l-3.16-.37L452.3,86.19c-2.65-.31-5.59-.63-8.81-.93l-5.05-.49-5.45-.4c-3.77-.34-7.81-.4-12.09-.6-4.29,0-8.82-.08-13.57.19a262,262,0,0,0-30.93,3.26c-1.38.21-2.78.4-4.18.64l-4.23.76c-2.85.52-5.74,1-8.67,1.57-5.84,1.19-11.87,2.31-18,3.68l-9.34,2-9.54,2.16q-9.63,2.16-19.64,4.56t-20.31,4.86L272.09,110l-10.56,2.39a434.63,434.63,0,0,1-81.37,8.78,555.22,555.22,0,0,1-66.81-3c-18.95-2-34.17-4.47-44.63-6.44-5.24-1-9.28-1.85-12-2.46l-3.1-.73c-.7-.17-1.05-.28-1.05-.28l1.06.23,3.12.67c2.74.58,6.79,1.41,12,2.37,10.47,1.91,25.69,4.36,44.63,6.28a563.34,563.34,0,0,0,66.77,2.84,437,437,0,0,0,81.27-8.81L272,109.47l10.39-2.5q10.31-2.5,20.32-4.86t19.64-4.55l9.54-2.15,9.35-2c6.14-1.36,12.18-2.48,18-3.66,2.93-.57,5.83-1,8.68-1.56l4.24-.75c1.4-.24,2.8-.43,4.19-.64a261.54,261.54,0,0,1,31-3.2c4.76-.26,9.29-.16,13.59-.15,4.28.21,8.33.29,12.1.64l5.46.42,5,.51c3.23.31,6.17.65,8.81,1,5.29.61,9.39,1.15,12.17,1.51l3.16.41Z" style="fill:#e0e0e0"></path><path d="M64.88,97.79l-.36.28a3.52,3.52,0,0,1-1.26.49,4.38,4.38,0,0,1-2.18-.12,4.59,4.59,0,0,1-2.44-1.7A4.35,4.35,0,0,1,58,93.09a5.48,5.48,0,0,1,2.71-3.48,5.66,5.66,0,0,1,5.05.12A6.28,6.28,0,0,1,68,91.53a6.4,6.4,0,0,1,1.16,2.74,7.55,7.55,0,0,1-1.61,6,9.26,9.26,0,0,1-6,3.21,10.55,10.55,0,0,1-7.08-1.72,10.29,10.29,0,0,1-4.32-6.4,10.56,10.56,0,0,1-.07-4.08,11,11,0,0,1,1.53-3.88,21.24,21.24,0,0,1,6.14-5.91c4.82-3.18,9.9-6.27,15.06-9.54a12.58,12.58,0,0,0,3.42-2.82,4.61,4.61,0,0,0,.94-4A3.38,3.38,0,0,0,74,62.9a4.7,4.7,0,0,0-2,.26,5.92,5.92,0,0,0-1.76,1.08,10.52,10.52,0,0,0-2.4,3.38,23,23,0,0,0-1.41,3.9,41.7,41.7,0,0,0-1.18,8c-.43,10.56-.82,20.08-1.15,28.08a20.27,20.27,0,0,1-.86,5.67,7.92,7.92,0,0,1-3,4.12,5.26,5.26,0,0,1-4.31.92A4.89,4.89,0,0,1,53,116a4.49,4.49,0,0,1-.56-2.92,4.71,4.71,0,0,1,.81-2,4.12,4.12,0,0,1,.92-1,2.83,2.83,0,0,1,.38-.25,5.33,5.33,0,0,0-1.22,1.29,4.93,4.93,0,0,0-.73,2,4.27,4.27,0,0,0,.58,2.8A4.65,4.65,0,0,0,56,118.05a5,5,0,0,0,4.08-.92,7.66,7.66,0,0,0,2.85-4,19.79,19.79,0,0,0,.8-5.58c.3-8,.58-17.51,1-28.09a41.59,41.59,0,0,1,1.18-8.08,23.38,23.38,0,0,1,1.43-4,10.86,10.86,0,0,1,2.53-3.55,6,6,0,0,1,1.91-1.18,5.27,5.27,0,0,1,2.26-.3,4.61,4.61,0,0,1,2.19.76A3.53,3.53,0,0,1,77.63,65a5.11,5.11,0,0,1-1,4.45,13.37,13.37,0,0,1-3.56,2.94C67.9,75.7,62.8,78.8,58,82a20.62,20.62,0,0,0-6,5.75,10.51,10.51,0,0,0-1.48,3.71,10,10,0,0,0,.06,3.89,9.79,9.79,0,0,0,4.1,6.12,10.1,10.1,0,0,0,6.78,1.67,8.84,8.84,0,0,0,5.74-3,7.2,7.2,0,0,0,1.56-5.72,6.15,6.15,0,0,0-1.08-2.6A5.91,5.91,0,0,0,65.63,90a5.36,5.36,0,0,0-4.77-.16,5.2,5.2,0,0,0-2.6,3.28,4.2,4.2,0,0,0,.54,3.48,4.63,4.63,0,0,0,4.45,1.83A4.13,4.13,0,0,0,64.88,97.79Z" style="fill:#e0e0e0"></path><path d="M53.89,117c-1-.88-.68-1.73-.24-2.11a6,6,0,0,1,1.56-.72,3.21,3.21,0,0,0,1.69-3.83,3.06,3.06,0,0,0-3.71-1.84,3.8,3.8,0,0,0-2.25,2.61,4.91,4.91,0,0,0,.54,4c.76,1.16,1.36,1.35,3.11,2.57" style="fill:#e0e0e0"></path><path d="M50.72,96.23c-.46-3.53,1.35-6,4-8.33s6-3.79,9.15-5.44a35.36,35.36,0,0,0,8.77-6.13,17.45,17.45,0,0,0,5.06-9.28,10.15,10.15,0,0,1-4,4.7,53.77,53.77,0,0,1-5.47,3,93.86,93.86,0,0,0-9.86,6.34,28.6,28.6,0,0,0-6.08,5.48c-3,3.88-2.5,6.76-1.56,10,.19-.23.22.9.41.67" style="fill:#e0e0e0"></path><path d="M282.36,92.26a6.94,6.94,0,0,0-4.76-1,7.58,7.58,0,0,0-4.5,2.39,3.27,3.27,0,0,0-1,2.88,3.4,3.4,0,0,0,2.54,2.08,8.94,8.94,0,0,0,5.27-.13A5.34,5.34,0,0,0,283.07,96a3,3,0,0,0-.71-3.71" style="fill:#e0e0e0"></path><path d="M288.12,64.36a5.32,5.32,0,0,1,0,1.23c0,.79-.12,1.93-.26,3.34-.26,2.81-.74,6.69-1.47,10.94s-1.59,8.06-2.28,10.8c-.35,1.37-.65,2.47-.88,3.23a5,5,0,0,1-.4,1.16,5.8,5.8,0,0,1,.21-1.21c.19-.88.43-2,.71-3.27.6-2.75,1.39-6.56,2.12-10.8s1.27-8.1,1.63-10.89c.16-1.32.31-2.43.42-3.32A6.05,6.05,0,0,1,288.12,64.36Z" style="fill:#e0e0e0"></path><path d="M287.32,72a14.93,14.93,0,0,1,6.17,4.81A9.12,9.12,0,0,1,295,84.35a6.63,6.63,0,0,1-5.59,4.9c2.13-1,4.44-1.51,6.49-2.64s3.88-3.07,4-5.41a13.81,13.81,0,0,0-1.71-5.94c-1.95-4.15-5.71-7.1-9.87-9.17" style="fill:#e0e0e0"></path><path d="M96.63,104.16a8.17,8.17,0,0,0-8.54,3.93,2.54,2.54,0,0,0-.26,2.43,2.67,2.67,0,0,0,2.1,1,9,9,0,0,0,4.35-.42,5.31,5.31,0,0,0,3.1-3,3.8,3.8,0,0,0-.89-4.07" style="fill:#e0e0e0"></path><path d="M116.62,98.76a8.16,8.16,0,0,0-8.53,3.93,2.54,2.54,0,0,0-.27,2.43,2.7,2.7,0,0,0,2.11,1,8.91,8.91,0,0,0,4.35-.42,5.32,5.32,0,0,0,3.09-3,3.78,3.78,0,0,0-.89-4.06" style="fill:#e0e0e0"></path><path d="M97,106.18c-.14,0-1-5.45-1.85-12.2S93.69,81.72,93.83,81.7s1,5.45,1.85,12.21S97.15,106.16,97,106.18Z" style="fill:#e0e0e0"></path><path d="M117.15,100.26c-.14,0-1-5.45-1.85-12.2S113.83,75.8,114,75.78s1,5.45,1.85,12.21S117.3,100.24,117.15,100.26Z" style="fill:#e0e0e0"></path><polygon points="93.87 81.97 113.91 75.27 114.48 79.67 94.45 86.47 93.87 81.97" style="fill:#e0e0e0"></polygon><path d="M227.21,97.69a8.18,8.18,0,0,0-9.13,2.26,2.54,2.54,0,0,0-.72,2.33,2.71,2.71,0,0,0,1.88,1.41,9.08,9.08,0,0,0,4.35.41,5.32,5.32,0,0,0,3.6-2.34,3.79,3.79,0,0,0-.11-4.16" style="fill:#e0e0e0"></path><path d="M247.86,96.16a8.18,8.18,0,0,0-9.12,2.25,2.54,2.54,0,0,0-.72,2.34,2.67,2.67,0,0,0,1.87,1.4,9,9,0,0,0,4.36.42,5.3,5.3,0,0,0,3.59-2.34,3.78,3.78,0,0,0-.1-4.16" style="fill:#e0e0e0"></path><path d="M227.2,99.75c-.14,0,.08-5.53.49-12.33s.86-12.31,1-12.3-.08,5.53-.49,12.33S227.35,99.76,227.2,99.75Z" style="fill:#e0e0e0"></path><path d="M248.1,97.73c-.14,0,.07-5.53.49-12.33s.86-12.31,1-12.3-.07,5.53-.49,12.33S248.24,97.74,248.1,97.73Z" style="fill:#e0e0e0"></path><polygon points="228.68 75.38 249.62 72.58 249.35 77.01 228.41 79.92 228.68 75.38" style="fill:#e0e0e0"></polygon><path d="M138.13,118.36a8.17,8.17,0,0,0-9.36.85,2.54,2.54,0,0,0-1.06,2.2,2.69,2.69,0,0,0,1.64,1.67,9,9,0,0,0,4.24,1.07,5.32,5.32,0,0,0,3.91-1.76,3.8,3.8,0,0,0,.52-4.13" style="fill:#e0e0e0"></path><path d="M144.54,92.3c.14,0-1.16,6.44-2.9,14.31s-3.28,14.23-3.42,14.2,1.16-6.44,2.91-14.31S144.4,92.27,144.54,92.3Z" style="fill:#e0e0e0"></path><path d="M190.07,102.38a8.18,8.18,0,0,0-8.37,4.29,2.52,2.52,0,0,0-.17,2.43,2.69,2.69,0,0,0,2.15.94,9,9,0,0,0,4.33-.59,5.33,5.33,0,0,0,3-3.1,3.79,3.79,0,0,0-1.06-4" style="fill:#e0e0e0"></path><path d="M186.26,75.82c.15,0,1.33,6.4,2.66,14.35s2.28,14.42,2.14,14.45-1.33-6.41-2.65-14.36S186.12,75.84,186.26,75.82Z" style="fill:#e0e0e0"></path><path d="M421.14,56.6a8.17,8.17,0,0,0-8.35,4.27,2.52,2.52,0,0,0-.16,2.43,2.69,2.69,0,0,0,2.14.94,9,9,0,0,0,4.33-.6,5.31,5.31,0,0,0,3-3.08,3.77,3.77,0,0,0-1.06-4" style="fill:#e0e0e0"></path><path d="M417.35,30.13c.14,0,1.33,6.38,2.65,14.3s2.28,14.38,2.14,14.4-1.33-6.38-2.65-14.31S417.21,30.15,417.35,30.13Z" style="fill:#e0e0e0"></path><path d="M395.27,64.69A8.15,8.15,0,0,0,386.92,69a2.51,2.51,0,0,0-.17,2.42,2.69,2.69,0,0,0,2.14.94,9,9,0,0,0,4.33-.59,5.27,5.27,0,0,0,3-3.09,3.77,3.77,0,0,0-1.05-4" style="fill:#e0e0e0"></path><path d="M391.47,38.21c.15,0,1.33,6.38,2.66,14.31s2.28,14.37,2.13,14.39-1.33-6.38-2.65-14.31S391.33,38.23,391.47,38.21Z" style="fill:#e0e0e0"></path><path d="M366.9,78.39a8.18,8.18,0,0,0-8.36,4.27,2.52,2.52,0,0,0-.16,2.43,2.71,2.71,0,0,0,2.14.94,9,9,0,0,0,4.33-.6,5.31,5.31,0,0,0,3-3.08,3.77,3.77,0,0,0-1.06-4" style="fill:#e0e0e0"></path><path d="M363.1,51.91c.14,0,1.33,6.39,2.65,14.31s2.28,14.37,2.14,14.4-1.33-6.38-2.65-14.31S363,51.94,363.1,51.91Z" style="fill:#e0e0e0"></path><path d="M160.84,130a5.53,5.53,0,0,1-.06-1.3v-3.55c0-3,0-7.14,0-11.71s-.16-8.71-.24-11.71c0-1.42-.06-2.61-.09-3.55a5.72,5.72,0,0,1,0-1.3,7,7,0,0,1,.17,1.29c.07.84.16,2,.25,3.54.17,3,.34,7.14.39,11.72s0,8.73-.12,11.73c-.06,1.49-.11,2.71-.17,3.54A6.28,6.28,0,0,1,160.84,130Z" style="fill:#e0e0e0"></path><path d="M166.17,128.2a7,7,0,0,1,0-1.27c0-.91.05-2.07.08-3.44.07-2.9.13-6.91.06-11.34s-.25-8.44-.42-11.34c-.07-1.37-.13-2.52-.18-3.43a6.15,6.15,0,0,1,0-1.27,5.81,5.81,0,0,1,.22,1.25c.1.81.22,2,.35,3.43.26,2.89.5,6.91.57,11.35s0,8.46-.21,11.37c-.08,1.45-.16,2.62-.24,3.43A5.6,5.6,0,0,1,166.17,128.2Z" style="fill:#e0e0e0"></path><path d="M169.51,116.86a31.39,31.39,0,0,1-5.52,1.81,32.24,32.24,0,0,1-5.66,1.3,32.39,32.39,0,0,1,5.52-1.8A32.66,32.66,0,0,1,169.51,116.86Z" style="fill:#e0e0e0"></path><path d="M171,103a11.14,11.14,0,0,1-2.3,1A58.48,58.48,0,0,1,157,106.71a10.06,10.06,0,0,1-2.48.16,13.7,13.7,0,0,1,2.43-.53c1.5-.28,3.58-.69,5.85-1.22s4.31-1.1,5.78-1.52A13.26,13.26,0,0,1,171,103Z" style="fill:#e0e0e0"></path><path d="M337,101.21a6.76,6.76,0,0,1-.5-1.21c-.32-.89-.73-2-1.21-3.34-1-2.82-2.42-6.71-4-11s-3.13-8.13-4.23-10.92c-.52-1.32-1-2.43-1.3-3.31a5.25,5.25,0,0,1-.41-1.24,7.23,7.23,0,0,1,.6,1.16c.36.76.85,1.87,1.45,3.25,1.19,2.75,2.76,6.59,4.38,10.88s3,8.2,3.89,11.05c.46,1.43.82,2.59,1.05,3.4A5.11,5.11,0,0,1,337,101.21Z" style="fill:#e0e0e0"></path><path d="M341.42,97.7a5,5,0,0,1-.46-1.17c-.3-.87-.67-2-1.1-3.26-.93-2.76-2.25-6.55-3.83-10.68s-3.12-7.85-4.27-10.52l-1.35-3.16a5.54,5.54,0,0,1-.44-1.19,6.61,6.61,0,0,1,.62,1.1c.38.73.89,1.79,1.51,3.1,1.23,2.64,2.83,6.33,4.42,10.48s2.85,8,3.69,10.75c.42,1.4.74,2.53.94,3.32A5.9,5.9,0,0,1,341.42,97.7Z" style="fill:#e0e0e0"></path><path d="M340.68,85.91a32.46,32.46,0,0,1-4.57,3.58,32.87,32.87,0,0,1-4.88,3.17,32.41,32.41,0,0,1,4.58-3.59A31.75,31.75,0,0,1,340.68,85.91Z" style="fill:#e0e0e0"></path><path d="M337.31,72.36a10.1,10.1,0,0,1-1.83,1.7,57.21,57.21,0,0,1-4.85,3.55,56.64,56.64,0,0,1-5.19,3,10.35,10.35,0,0,1-2.28,1,13.79,13.79,0,0,1,2.11-1.33c1.31-.78,3.12-1.87,5.08-3.15s3.67-2.51,4.91-3.41A13.94,13.94,0,0,1,337.31,72.36Z" style="fill:#e0e0e0"></path></g><g id="freepik--Plant--inject-65"><path d="M50.27,341.55a40.49,40.49,0,0,0-17.3-6c-2.83-.29-5.92-.2-8.19,1.51a1.67,1.67,0,0,0-.84,1.49,1.84,1.84,0,0,0,.8,1c7,5.37,17.69,6.05,25.53,1.93" style="fill:#92E3A9"></path><path d="M49.83,341.06a84.42,84.42,0,0,1-11.18-9.83,28.35,28.35,0,0,1-7-13c-.3-1.48-.39-3.17.56-4.34,8.91,7,15.91,16,17.63,27.13" style="fill:#92E3A9"></path><path d="M50.18,341.48a40.4,40.4,0,0,1,.21-14.67c1.12-4.79,3.72-9.38,7.81-12.11,1.54,3.6.88,7.74-.2,11.5a56,56,0,0,1-7.75,16.32" style="fill:#92E3A9"></path><path d="M58.91,357.13c-5.3.65-9.92,3.44-13.87,7a26.18,26.18,0,0,0-7.94,13.62c5.2-.32,9.61-4,12.81-8.1s5.42-8.62,8.93-12.47" style="fill:#92E3A9"></path><path d="M60.81,359.63a34.23,34.23,0,0,1,4-32.37c3,10.74,1.91,22.88-4,32.37" style="fill:#92E3A9"></path><path d="M72.35,373.37A24.79,24.79,0,0,0,48.68,387c-.29.58-.55,1.33-.16,1.85a1.76,1.76,0,0,0,1.57.46c4.67-.3,8.8-3.1,12.21-6.3s6.38-6.89,10.15-9.65" style="fill:#92E3A9"></path><path d="M72,372.63A44.06,44.06,0,0,1,71.54,348c.87-3.17,2.32-6.51,5.25-8a1.12,1.12,0,0,1,.81-.14,1.1,1.1,0,0,1,.51.59,15,15,0,0,1,1.24,7.07,44.65,44.65,0,0,1-1.11,7.15c-.92,4.37-1.42,9.06-3.81,12.83a27.41,27.41,0,0,0-1.53,2.82c-.45,1-.45,1.3-.87,2.06" style="fill:#92E3A9"></path><path d="M102.53,377.18c-2.27-8.61.13-19.05,5.56-26.1.4-.52.93-1.08,1.58-1,1,.09,1.26,1.42,1.21,2.43a47.18,47.18,0,0,1-8.35,24.69" style="fill:#92E3A9"></path><path d="M105.28,379.06c10.46,2.72,22.46.08,31.15-6.34a25.27,25.27,0,0,0-16.86-2.07c-5.64,1.29-10.78,3.82-14.29,8.41" style="fill:#92E3A9"></path><path d="M107.6,373.33c5.86-9.55,17.09-15.78,28.28-16.35-1.29,4.55-5,8.09-9.25,10.22s-8.93,3.07-13.57,4c-1.81.35-4.29.74-5.46,2.16" style="fill:#92E3A9"></path><path d="M103.11,345.52c1.58-5.44,3.18-10.92,3.61-16.56s-.37-11.54-3.29-16.38c-5.48,10.58-6,22.95-.49,33.5" style="fill:#92E3A9"></path><path d="M121.53,336.21c6.4-11.63,19.45-20.92,32.66-22.22-5.1,12.68-19,22.49-32.66,22.22" style="fill:#92E3A9"></path><path d="M117.5,338.48c9.54,1.46,17.67,7.55,26.59,11.25a11.91,11.91,0,0,0,6,1.15,4.71,4.71,0,0,0,3-8.33,12.73,12.73,0,0,0-4.37-2.64c-9.71-4.05-20.13-4.15-30.36-1.7" style="fill:#92E3A9"></path><path d="M112,345.18c2.16.62,2.9,1.73,4.61,3.19a49.74,49.74,0,0,0,20.16,10.36c.77.19,1.78.27,2.17-.43s-.09-1.34-.53-1.88a27.73,27.73,0,0,0-12.17-8.27c-4.65-1.73-8.69-3.82-14.24-3.37" style="fill:#92E3A9"></path><path d="M105.75,304.76A38.16,38.16,0,0,0,135,314.71a2,2,0,0,0,1.34-.48c.73-.8-.15-2-1-2.7-8.6-6.71-19-9.49-29.58-6.77" style="fill:#92E3A9"></path><path d="M113.14,302.05a40.75,40.75,0,0,1,36.5-6c-4.59,4.53-11,7-17.39,7.64a55.26,55.26,0,0,1-19.11-1.62" style="fill:#92E3A9"></path><path d="M110.2,283.48c-.84-8.59-.3-15.36-.89-24,0-.69-.2-1.52-.84-1.76-.9-.35-1.65.75-1.94,1.67a27.48,27.48,0,0,0,3.66,23.89" style="fill:#92E3A9"></path><path d="M109.58,284.43c5.82-3.6,10.19-8.3,14.22-13.82,2.81-3.85,5.18-8.45,4.54-13.17-3.94-.08-7.69,2.1-10.25,5.09a28.46,28.46,0,0,0-5.23,10.53c-1.14,3.77-1.94,7.65-3.28,11.37" style="fill:#92E3A9"></path><path d="M123.56,280.55a114.73,114.73,0,0,0,35-20.64c-4.18-1.68-9-.68-13.14,1-9.55,3.85-17.35,10.36-22,19.53" style="fill:#92E3A9"></path><path d="M113.51,289.12c6.46.71,13,1.17,19.44.1s12.25-3.55,18.14-6a2.14,2.14,0,0,0,1.23-.94,1.43,1.43,0,0,0-.44-1.55,3.81,3.81,0,0,0-1.55-.72c-6.4-1.79-13.31-1-19.6,1.17a90.55,90.55,0,0,0-17.22,8" style="fill:#92E3A9"></path><path d="M76.62,305.05c-4.41-8.9-4.12-19.28-.31-28.45,2.68,4.08,3,9.28,2.52,14.15s-2,9.86-2.07,14.74" style="fill:#92E3A9"></path><path d="M59,296.17a39.68,39.68,0,0,0-29.48,12.56c5.49.86,11.15-.55,16.14-3s9.44-5.87,13.84-9.26" style="fill:#92E3A9"></path><path d="M47.18,292.21c-5.39-.44-10.57-1.1-15.74.48s-9.89,5.19-12,10.18a28.51,28.51,0,0,0,14.75-2.79,84.77,84.77,0,0,0,13-7.87" style="fill:#92E3A9"></path><path d="M64.7,292.39c-4.84-3.17-9.81-6.4-15.45-7.72s-12.18-.34-16.11,3.91c4.57,2.68,10.1,3,15.4,3s11.78-.06,16.77,1.7" style="fill:#92E3A9"></path><path d="M64.73,292.65c-8.28-8.13-11.42-22.74-8.09-33.86a51.56,51.56,0,0,1,8.09,33.86" style="fill:#92E3A9"></path><path d="M87.5,269.61c1.56-3.63,2.66-7.44,4.06-11.14a31.92,31.92,0,0,1,5.79-10.26,15.26,15.26,0,0,1,10.25-5.32,41.3,41.3,0,0,1-19.9,26.78" style="fill:#92E3A9"></path><path d="M83.38,274.41c-2.58-3.56-5.57-8.39-9.07-11s-8.07-4.26-12.35-3.24a28.78,28.78,0,0,0,21.42,14.28" style="fill:#92E3A9"></path><path d="M84.2,269.91c-1.69-4.31-3.4-8.66-4.08-13.23s-.27-9.46,2.07-13.45c4.55,8.59,6,17.81,2.25,26.77" style="fill:#92E3A9"></path><path d="M87.54,243.23c2.58-8.52,10.37-14.79,18.79-17.67a7.1,7.1,0,0,1,3.3-.49,2.85,2.85,0,0,1,2.43,2c.3,1.44-.89,2.74-2,3.7a63.82,63.82,0,0,1-22.5,12.43" style="fill:#92E3A9"></path><path d="M87.63,236.26c.33-5.49.67-11.06,2.46-16.26s5.23-10.09,10.24-12.36c.85,5.54-1.6,11.06-4.55,15.83s-6.51,9.28-8.28,14.6" style="fill:#92E3A9"></path><path d="M87.5,240c-2.13-6.2-2.35-14.09-6.06-19.5-2.6-3.78-6.76-6.35-9-10.35A15.75,15.75,0,0,0,73,221.94a34.1,34.1,0,0,0,6.88,9.85c2.75,2.94,5.1,5.15,7.66,8.25" style="fill:#92E3A9"></path><path d="M87.54,422.84c-.16,0-.31-41.41-.32-92.48s.11-92.48.28-92.48.31,41.4.32,92.48S87.71,422.84,87.54,422.84Z" style="fill:#263238"></path><path d="M123.73,298.8a9,9,0,0,1-1.56.59l-4.28,1.44c-3.62,1.23-8.58,3-14,5.22s-10.36,4.15-13.22,6.63A9.61,9.61,0,0,0,88,316.2c-.41,1-.49,1.56-.54,1.55a1.28,1.28,0,0,1,0-.43,6.29,6.29,0,0,1,.3-1.21,9.35,9.35,0,0,1,2.6-3.75,23.27,23.27,0,0,1,5.73-3.56c2.3-1.07,4.85-2.19,7.55-3.3,5.4-2.22,10.4-3.94,14-5.07,1.83-.57,3.32-1,4.35-1.27A8.69,8.69,0,0,1,123.73,298.8Z" style="fill:#263238"></path><path d="M135.59,269.67a3.37,3.37,0,0,1-.44.46l-1.33,1.25-5,4.51-16.51,14.7c-6.44,5.73-12,11.22-15.87,15.34-1.93,2.06-3.46,3.77-4.49,5l-1.2,1.37a3.43,3.43,0,0,1-.45.46s.1-.2.35-.53.62-.83,1.12-1.45c1-1.24,2.46-3,4.36-5.09A209,209,0,0,1,112,290.14c6.47-5.72,12.36-10.86,16.63-14.57l5.09-4.36,1.4-1.17C135.4,269.78,135.57,269.65,135.59,269.67Z" style="fill:#263238"></path><path d="M105.4,296.42c-.17-.07,1.17-3.18,2.51-7.11s2-7.25,2.17-7.22a24.63,24.63,0,0,1-1.6,7.41,48.22,48.22,0,0,1-2,5A7.93,7.93,0,0,1,105.4,296.42Z" style="fill:#263238"></path><path d="M87.58,321.48a6.57,6.57,0,0,1-1-1.15L84,317.07c-2.14-2.76-5.09-6.58-8.4-10.75s-6.36-7.92-8.56-10.62l-2.6-3.22a7.52,7.52,0,0,1-.9-1.23,7.39,7.39,0,0,1,1.07,1.08c.67.71,1.61,1.77,2.75,3.09,2.29,2.64,5.39,6.35,8.71,10.53s6.22,8,8.27,10.86c1,1.42,1.84,2.57,2.39,3.38A8.38,8.38,0,0,1,87.58,321.48Z" style="fill:#263238"></path><path d="M79.65,311.3a14.6,14.6,0,0,1-3.33-6.22,17.74,17.74,0,0,1-.75-6.28l.26,0c-.12.48-.2.74-.25.73s0-.28,0-.77l.26,0a28.58,28.58,0,0,0,1.07,6.1C78,308.6,79.81,311.2,79.65,311.3Z" style="fill:#263238"></path><path d="M69.4,298.41a11,11,0,0,0-2.32-1.34,15.47,15.47,0,0,0-6.44-.52,40.33,40.33,0,0,0-6.49,1.05,19.63,19.63,0,0,1-2.67.64A9.45,9.45,0,0,1,54,297.19,29.56,29.56,0,0,1,60.59,296a14,14,0,0,1,6.65.71A4.11,4.11,0,0,1,69.4,298.41Z" style="fill:#263238"></path><path d="M67,295.29c0,.09-1.35-.54-3.55-1.29a36.67,36.67,0,0,0-8.87-1.83,37.13,37.13,0,0,0-9,.46c-2.29.41-3.68.84-3.71.74a3.34,3.34,0,0,1,.94-.4,24.2,24.2,0,0,1,2.69-.76,31.9,31.9,0,0,1,9.17-.64,31.56,31.56,0,0,1,9,2,21.47,21.47,0,0,1,2.54,1.15C66.68,295.06,67,295.25,67,295.29Z" style="fill:#263238"></path><path d="M87.5,282.09a74.1,74.1,0,0,1-2.59-9c-1.28-5-2.18-9.11-2-9.15s1.33,4,2.6,9S87.66,282.05,87.5,282.09Z" style="fill:#263238"></path><path d="M87.66,282.09a41.18,41.18,0,0,0-2.87-5.4,23.91,23.91,0,0,0-4.23-4.36,3.94,3.94,0,0,1,1.63.84,13.05,13.05,0,0,1,3.09,3.18C87.3,279.22,87.81,282.08,87.66,282.09Z" style="fill:#263238"></path><path d="M87.54,400.76c-.06,0-.18-1-.65-2.75a39,39,0,0,0-2.77-7.17c-2.86-5.85-8.06-13.26-14.68-20.68-3.28-3.75-6.46-7.28-9.16-10.66a74.83,74.83,0,0,1-6.54-9.45,45.2,45.2,0,0,1-3.31-7c-.3-.87-.53-1.54-.65-2a3.47,3.47,0,0,1-.17-.71c.06,0,.36.94,1,2.63a51.23,51.23,0,0,0,3.45,6.88,79.67,79.67,0,0,0,6.61,9.31c2.71,3.35,5.9,6.86,9.18,10.61,6.63,7.45,11.83,14.95,14.61,20.9A35.32,35.32,0,0,1,87.11,398a17.3,17.3,0,0,1,.37,2.08A3.35,3.35,0,0,1,87.54,400.76Z" style="fill:#263238"></path><path d="M120.24,363.83a16.5,16.5,0,0,1-1.71,1,37.94,37.94,0,0,0-4.45,2.94,51.55,51.55,0,0,0-5.84,5.32c-2,2.17-4.16,4.68-6.31,7.38-4.31,5.4-8.34,10.18-10.75,14-1.22,1.89-2.11,3.49-2.7,4.61a12.9,12.9,0,0,1-.94,1.72,1.73,1.73,0,0,1,.16-.48c.13-.31.3-.77.58-1.35a43.94,43.94,0,0,1,2.55-4.73c2.34-3.91,6.33-8.75,10.63-14.15,2.16-2.7,4.3-5.22,6.39-7.38a47.88,47.88,0,0,1,6-5.28,30.54,30.54,0,0,1,4.59-2.8c.57-.29,1-.46,1.34-.6A1.62,1.62,0,0,1,120.24,363.83Z" style="fill:#263238"></path><path d="M120.88,375.81a23.79,23.79,0,0,1-3.62.53,47.92,47.92,0,0,0-8.59,1.69,25.69,25.69,0,0,0-7.69,4c-1.78,1.37-2.61,2.5-2.7,2.43a3.12,3.12,0,0,1,.54-.83,13.14,13.14,0,0,1,1.89-1.93,23.27,23.27,0,0,1,7.77-4.28,38.93,38.93,0,0,1,8.74-1.54A19.35,19.35,0,0,1,120.88,375.81Z" style="fill:#263238"></path><path d="M99.34,383.19c-.19-.11,1.44-2.6,2.71-6s1.47-6.35,1.68-6.31a5.75,5.75,0,0,1-.06,1.94,20.69,20.69,0,0,1-1.06,4.58,22,22,0,0,1-2.1,4.2A5.65,5.65,0,0,1,99.34,383.19Z" style="fill:#263238"></path><path d="M130.83,331.66a2.33,2.33,0,0,1-.58.31l-1.7.78c-.75.32-1.65.72-2.67,1.26s-2.22,1.07-3.46,1.82l-2,1.12c-.68.39-1.36.86-2.08,1.31-1.46.89-2.92,2-4.48,3.09a76.5,76.5,0,0,0-17.23,17.83c-1.05,1.59-2.09,3.09-2.93,4.57-.42.74-.87,1.43-1.24,2.13s-.72,1.37-1,2c-.71,1.27-1.21,2.48-1.7,3.52s-.88,2-1.17,2.72l-.72,1.72a3.4,3.4,0,0,1-.28.59,2.81,2.81,0,0,1,.17-.63l.61-1.77c.26-.77.61-1.7,1.08-2.76s1-2.29,1.63-3.58l1-2c.36-.71.8-1.41,1.22-2.16.82-1.51,1.85-3,2.9-4.64a81.22,81.22,0,0,1,7.91-9.72,82.34,82.34,0,0,1,9.44-8.24c1.58-1.1,3.06-2.18,4.54-3.06.73-.44,1.42-.9,2.12-1.29l2-1.09c1.27-.73,2.48-1.25,3.52-1.75s2-.89,2.73-1.18l1.75-.67A2.58,2.58,0,0,1,130.83,331.66Z" style="fill:#263238"></path><path d="M105,349a4.25,4.25,0,0,1,1.42-2.12,9.06,9.06,0,0,1,5.74-2.2,15.89,15.89,0,0,1,6,1.18,8.76,8.76,0,0,1,2.28,1.11,14,14,0,0,1-2.42-.71,18.32,18.32,0,0,0-5.87-1,9.39,9.39,0,0,0-5.48,1.92A17.69,17.69,0,0,0,105,349Z" style="fill:#263238"></path><path d="M101.08,353c-.16-.09,1.3-2.23,1.63-5.29s-.54-5.48-.36-5.53a3.52,3.52,0,0,1,.67,1.54,11,11,0,0,1,.29,4.06,10.81,10.81,0,0,1-1.22,3.88C101.59,352.56,101.14,353,101.08,353Z" style="fill:#263238"></path><path d="M58.94,406.7c.9,15.82,5.66,31.91,13,48.18h31.89c7-16.11,11.44-32.17,12.23-48.18Z" style="fill:#263238"></path><path d="M110.89,432.3c0,.17-10.5.3-23.46.3S64,432.47,64,432.3s10.5-.3,23.45-.3S110.89,432.14,110.89,432.3Z" style="fill:#fafafa"></path><path d="M110.17,438c0,.17-9.84.3-22,.3s-22-.13-22-.3,9.84-.3,22-.3S110.17,437.87,110.17,438Z" style="fill:#fafafa"></path></g><g id="freepik--Floor--inject-65"><path d="M474.71,454.88c0,.15-101.06.26-225.7.26S23.29,455,23.29,454.88s101-.26,225.72-.26S474.71,454.74,474.71,454.88Z" style="fill:#263238"></path></g><g id="freepik--Chair--inject-65"><rect x="388.33" y="342.26" width="5.54" height="113.1" style="fill:#455a64"></rect><rect x="298.31" y="342.26" width="5.54" height="113.1" style="fill:#455a64"></rect><rect x="299.77" y="369.25" width="92.72" height="5.06" style="fill:#455a64"></rect><path d="M393.15,350.18H287.06a14.07,14.07,0,0,1,14.07-14.06h101.5v4.59A9.48,9.48,0,0,1,393.15,350.18Z" style="fill:#455a64"></path><path d="M345.47,198.1h44.37a12.78,12.78,0,0,1,12.78,12.78V339.47a0,0,0,0,1,0,0H332.69a0,0,0,0,1,0,0V210.88A12.78,12.78,0,0,1,345.47,198.1Z" style="fill:#455a64"></path><path d="M393.87,198.1s0,.18,0,.53,0,.9,0,1.57c0,1.4,0,3.42.05,6,0,5.26,0,12.82.09,22.16,0,18.72,0,44.55.07,73.08,0,12.52,0,24.51,0,35.45v.25h-.25l-48.85-.1L331,337l-3.74,0-1,0a1.14,1.14,0,0,1-.32,0l.32,0,1,0,3.74,0,14-.07,48.85-.09-.24.24c0-10.94,0-22.93,0-35.45,0-28.53.06-54.36.08-73.08,0-9.34.06-16.9.08-22.16,0-2.6,0-4.62.05-6,0-.67,0-1.19,0-1.57S393.87,198.1,393.87,198.1Z" style="fill:#263238"></path><path d="M398.65,348.41a6.52,6.52,0,0,1,.42-2.15,14.84,14.84,0,0,0,.5-2.27,3.61,3.61,0,0,0-.59-2.59,11.58,11.58,0,0,0-3.72-3.51c-1.14-.68-1.93-1-1.9-1a5.25,5.25,0,0,1,2.08.72,10.73,10.73,0,0,1,4,3.54,3.89,3.89,0,0,1,.62,1.47,5.18,5.18,0,0,1,0,1.47,13,13,0,0,1-.63,2.32A15.32,15.32,0,0,1,398.65,348.41Z" style="fill:#263238"></path></g><g id="freepik--Character--inject-65"><path d="M205.81,404.45l7.48,30s-27.95,17.66-27.1,23.33l58.61-12.4-9.73-47.17Z" style="fill:#92E3A9"></path><g style="opacity:0.6000000000000001"><path d="M230.87,428a2.46,2.46,0,0,1,2.24,2.39,2.35,2.35,0,0,1-2.34,2.23,2.59,2.59,0,0,1-2.36-2.53,2.45,2.45,0,0,1,2.7-2.06" style="fill:#fff"></path></g><g style="opacity:0.6000000000000001"><path d="M244.8,445.34l-1.17-4.72-55.76,13.66s-2.37,1.69-1.68,3.46Z" style="fill:#fff"></path></g><path d="M212.27,434.31c.07.29,1.53.11,3.14.74s2.6,1.66,2.84,1.49-.53-1.73-2.49-2.45S212.16,434.06,212.27,434.31Z" style="fill:#263238"></path><path d="M206.66,438.16c0,.29,1.34.51,2.57,1.52s1.78,2.22,2.06,2.15.12-1.73-1.43-2.95S206.61,437.88,206.66,438.16Z" style="fill:#263238"></path><path d="M204.73,446.25c.27,0,.37-1.5-.7-2.92s-2.54-1.75-2.61-1.48.94.92,1.8,2.1S204.44,446.29,204.73,446.25Z" style="fill:#263238"></path><path d="M211.33,427.3c.17.23,1.4-.44,3-.67s3,0,3.11-.27-1.33-1-3.26-.74S211.14,427.1,211.33,427.3Z" style="fill:#263238"></path><g style="opacity:0.30000000000000004"><polygon points="207.17 409.84 208.63 415.72 237.38 409.36 236.11 403.14 207.17 409.84"></polygon></g><path d="M209.93,421.22c0,.12,1.19.06,2.93-.63a13.68,13.68,0,0,0,2.88-1.6,13.91,13.91,0,0,0,1.49-1.25,3.57,3.57,0,0,0,.74-.88,1.26,1.26,0,0,0-.19-1.55,1.62,1.62,0,0,0-1.39-.38,3.52,3.52,0,0,0-1.07.38,10.64,10.64,0,0,0-1.69,1,10.5,10.5,0,0,0-2.33,2.35c-1.1,1.55-1.33,2.72-1.23,2.75s.63-1,1.79-2.3a12.19,12.19,0,0,1,2.31-2,11.22,11.22,0,0,1,1.57-.88c.59-.29,1.11-.41,1.33-.16.08.09.1.13,0,.34a3.25,3.25,0,0,1-.55.64,15.27,15.27,0,0,1-1.36,1.22,16.84,16.84,0,0,1-2.61,1.68A22.22,22.22,0,0,0,209.93,421.22Z" style="fill:#263238"></path><path d="M210.39,421.56c.11,0,.46-1.13.17-3a9.42,9.42,0,0,0-1.08-3.13,9.68,9.68,0,0,0-1.12-1.63,2.49,2.49,0,0,0-2.19-1.08,1.39,1.39,0,0,0-1,1.08,3.78,3.78,0,0,0-.07,1.14,6.57,6.57,0,0,0,.41,2,6.9,6.9,0,0,0,1.9,2.77c1.47,1.28,2.73,1.37,2.74,1.26s-1-.5-2.24-1.78a6.82,6.82,0,0,1-1.51-2.56,6.32,6.32,0,0,1-.31-1.71c0-.64.09-1.19.34-1.18s.88.3,1.23.75a10,10,0,0,1,1.06,1.44,10.71,10.71,0,0,1,1.19,2.81C210.3,420.41,210.23,421.54,210.39,421.56Z" style="fill:#263238"></path><path d="M277.61,407.49,279,449.07l-8.39,33.21a4.26,4.26,0,0,0,3.37,5.24h0a4.24,4.24,0,0,0,3.73-1.14c6.29-6.15,29.3-28.91,29-31.95-.31-3.51,1.46-44,1.46-44Z" style="fill:#92E3A9"></path><g style="opacity:0.6000000000000001"><path d="M274,487.52l32.73-35.89,0,1.76a6.4,6.4,0,0,1-1.48,4.18c-2.61,3.13-10,11.62-27.41,28.81a4.27,4.27,0,0,1-3.86,1.14Z" style="fill:#fff"></path></g><g style="opacity:0.6000000000000001"><path d="M298,438.29a2.58,2.58,0,0,0-.67,3.38,2.47,2.47,0,0,0,3.34.69,2.72,2.72,0,0,0,.69-3.57c-.8-1-2.71-1.29-3.56-.34" style="fill:#fff"></path></g><path d="M283.29,469.24c-.23.12-1.19-2.05-3.68-3.2s-4.74-.61-4.8-.86.49-.43,1.46-.58a6.79,6.79,0,0,1,6.56,3.14C283.32,468.59,283.39,469.21,283.29,469.24Z" style="fill:#263238"></path><path d="M280.39,474.84c-.2.19-1.55-1.15-3.71-1.75s-4-.22-4.07-.48,1.88-1.11,4.32-.4S280.6,474.73,280.39,474.84Z" style="fill:#263238"></path><path d="M288.74,462c-.2.2-2.26-1.87-5.54-3.08s-6.17-1.1-6.18-1.38,3-.83,6.51.52S288.93,461.93,288.74,462Z" style="fill:#263238"></path><path d="M289.37,449.37c-.11.25-2.41-.69-5.41-.76s-5.35.66-5.44.4,2.26-1.44,5.47-1.32S289.5,449.17,289.37,449.37Z" style="fill:#263238"></path><path d="M289.28,437.15c-.13.24-2.45-1.12-5.61-.94s-5.36,1.67-5.5,1.44.38-.61,1.33-1.18a9.24,9.24,0,0,1,4.13-1.18,9.12,9.12,0,0,1,4.21.81C288.84,436.58,289.34,437.06,289.28,437.15Z" style="fill:#263238"></path><path d="M283.72,433.88a3.65,3.65,0,0,1-.07-1.57,10.86,10.86,0,0,1,1.2-4.14,4.9,4.9,0,0,1,2.06-2.33,1.7,1.7,0,0,1,1.93.36,2.76,2.76,0,0,1,.68,1.87,6,6,0,0,1-5.22,5.63,7,7,0,0,1-6.9-3.58,2.4,2.4,0,0,1-.14-2,1.69,1.69,0,0,1,1.75-.91,6,6,0,0,1,2.76,1.4,12.4,12.4,0,0,1,2.87,3.2,3.63,3.63,0,0,1,.65,1.43,19.15,19.15,0,0,0-3.91-4.11A5.54,5.54,0,0,0,279,428a.88.88,0,0,0-1,.49,1.7,1.7,0,0,0,.17,1.32,6.24,6.24,0,0,0,6,3,5.23,5.23,0,0,0,4.5-4.72,2,2,0,0,0-.42-1.33.93.93,0,0,0-1.06-.21,4.33,4.33,0,0,0-1.78,1.95A16,16,0,0,0,283.72,433.88Z" style="fill:#263238"></path><path d="M281.75,284.43c-2.51.41-71.82-7.55-85.83-5.74-14.42,1.87-21.3,18.28-20.69,27.4,1,14.61,24.68,105.24,24.68,105.24l38-7.05-12.92-81s38.31,12.82,48,12.39,20.35-22.19,20.35-22.19Z" style="fill:#263238"></path><path d="M294,286.67s-12.26-4.89-22.3,10.84c-5.46,8.55-3.81,23.19-3.81,23.19l5.74,101.82L312,424.3l1.8-88.66s1.32,2.51,7.66,2.55,27.16,2.35,33.27-8.33,5.5-27,5.5-27l4-16.16-52-9.79Z" style="fill:#263238"></path><path d="M295.6,287.68a18.66,18.66,0,0,0-3.75-1.08,17.32,17.32,0,0,0-10.32,1.72c-4.06,1.93-7.94,6-10.27,11.5a35.74,35.74,0,0,0-2.5,9,64.14,64.14,0,0,0-.59,10c0,3.44.22,6.81.36,10.06s.28,6.39.41,9.38c.25,6,.48,11.36.67,15.89s.3,8.14.4,10.71c0,1.24.07,2.21.09,2.92v.75a1,1,0,0,1,0,.26,1,1,0,0,1,0-.25c0-.2,0-.45-.06-.76q-.06-1.06-.18-2.91c-.14-2.57-.33-6.21-.57-10.7s-.49-9.91-.78-15.88c-.14-3-.29-6.13-.44-9.38s-.34-6.62-.37-10.09a62.9,62.9,0,0,1,.61-10.09,35.28,35.28,0,0,1,2.56-9.07c2.38-5.54,6.39-9.72,10.55-11.64a17.27,17.27,0,0,1,10.51-1.59,13.34,13.34,0,0,1,2.81.83l.69.32C295.53,287.63,295.61,287.67,295.6,287.68Z" style="fill:#455a64"></path><path d="M313.69,319a10,10,0,0,1,.13,1.56c0,1,.08,2.44.09,4.23,0,3.58,0,8.51-.13,14s-.2,10.29-.28,14c0,1.71-.05,3.14-.07,4.23a9.48,9.48,0,0,1-.07,1.55,8.44,8.44,0,0,1-.13-1.55c-.05-1-.08-2.45-.1-4.23,0-3.58,0-8.52.13-14s.21-10.3.28-14c0-1.72.06-3.14.08-4.23A8.49,8.49,0,0,1,313.69,319Z" style="fill:#455a64"></path><path d="M318.49,318.54a9.5,9.5,0,0,1,.06,2.53,28.84,28.84,0,0,1-1,6,28.39,28.39,0,0,1-2.27,5.69,9.27,9.27,0,0,1-1.37,2.13,18.33,18.33,0,0,1,1-2.3A38.6,38.6,0,0,0,317,327a40.07,40.07,0,0,0,1.15-5.93A16.07,16.07,0,0,1,318.49,318.54Z" style="fill:#455a64"></path><path d="M211.37,306.93a2.77,2.77,0,0,1,.82.24,14.82,14.82,0,0,1,2.13,1,21.77,21.77,0,0,1,6,4.78,22.05,22.05,0,0,1,4,6.56,15.53,15.53,0,0,1,.7,2.23,3.11,3.11,0,0,1,.14.85c-.09,0-.4-1.16-1.18-2.94a24.3,24.3,0,0,0-9.89-11.16C212.46,307.46,211.33,307,211.37,306.93Z" style="fill:#455a64"></path><path d="M217.3,300.09s.27.22.68.69a22.75,22.75,0,0,1,1.59,2.08,35.48,35.48,0,0,1,6.08,16.08,26,26,0,0,1,.18,2.62,3.3,3.3,0,0,1-.05,1c-.09,0-.16-1.36-.5-3.53a40.93,40.93,0,0,0-6-15.92C218.08,301.22,217.24,300.14,217.3,300.09Z" style="fill:#455a64"></path><path d="M283.14,169.55,272.85,291.62c5.13-2.31,10.68-4.95,13.33-5.34a17.73,17.73,0,0,1,7.83.39l12.55-3.13,55.24,3.63L328.6,158.65l-12.49-6.08Z" style="fill:#263238"></path><path d="M318.33,152.57,325.2,157s31.08,11.37,34.3,16,11.22,82.72,11.22,82.72-.21,47.09.4,49.16c.33,1.13,4.06,1.52,3.65,5.14a5.12,5.12,0,0,1-3.2,4.09l-13.06,5.36s1.6-21.52-9.8-28.83-19.17-6.82-19.17-6.82L329,250.37l-11.53-53.21s9.58-8.8,4.09-32.15C320.54,160.78,318.33,152.57,318.33,152.57Z" style="fill:#92E3A9"></path><path d="M362.82,298.37a3.89,3.89,0,0,1-.93-.45,18.27,18.27,0,0,1-2.35-1.52,26.64,26.64,0,0,1-3.15-2.74,30.35,30.35,0,0,1-3.23-4,30.79,30.79,0,0,1-2.44-4.49,26.36,26.36,0,0,1-1.34-3.95,22.32,22.32,0,0,1-.52-2.76,3.52,3.52,0,0,1-.05-1c.09,0,.27,1.44.93,3.69a31,31,0,0,0,1.42,3.86,33.18,33.18,0,0,0,2.44,4.39,31.66,31.66,0,0,0,3.14,3.92,29,29,0,0,0,3,2.78C361.59,297.57,362.87,298.29,362.82,298.37Z" style="fill:#263238"></path><g style="opacity:0.30000000000000004"><path d="M340.41,286.65l-.06-4.9a15.73,15.73,0,0,0,9.16-1.75,29.33,29.33,0,0,0,4.81,11.39,5.53,5.53,0,0,0,2.18,2.06,2.18,2.18,0,0,0,2.7-.66c.54-.91.08-2.07-.41-3a23.18,23.18,0,0,1-2.35-5.24,6,6,0,0,1,1-5.44,7.38,7.38,0,0,1,5-1.95,20.74,20.74,0,0,0,5.41-.7c1.72-.62,3.28-2.19,3.16-4l-34.87,6.47v5.94Z"></path></g><polygon points="286.53 167.8 286.02 166.17 283.89 165.78 259.22 177.91 237.38 224.15 266.88 229.31 272.72 212.94 293.18 218.2 287.73 197.74 286.53 167.8" style="fill:#92E3A9"></polygon><path d="M356.75,171.41s-10.34,16.68-9.72,29.65,1.06,31.08,1.06,31.08l35.57-12.63S365.3,172.27,356.75,171.41Z" style="fill:#92E3A9"></path><path d="M308.16,269.53l50.68-19.78-6.4-19.32,25.08-8.75s10.11,25.83,10,34.57c-.12,10.22-11.44,15.68-11.44,15.68l-63.72,11.75Z" style="fill:#ffbe9d"></path><path d="M302.59,290.73a2.88,2.88,0,0,1-.33,2.87c-.46.6-1.18,1.06-1.34,1.8-.2.92.58,1.76,1.36,2.29a2.62,2.62,0,0,0,2.44.54,2.36,2.36,0,0,0,1.16-1.94,12.19,12.19,0,0,1,.3-2.35,1.76,1.76,0,0,1,1.74-1.32" style="fill:#e0e0e0"></path><path d="M309.37,294.55a2.88,2.88,0,0,1-.34,2.87c-.45.6-1.17,1.06-1.33,1.8-.21.92.57,1.76,1.36,2.29a2.61,2.61,0,0,0,2.44.54,2.38,2.38,0,0,0,1.16-1.94,12.19,12.19,0,0,1,.3-2.35,1.75,1.75,0,0,1,1.73-1.32" style="fill:#e0e0e0"></path><path d="M316.43,298.21a2.86,2.86,0,0,1-.95,2.73c-.58.49-1.38.78-1.69,1.46a2.46,2.46,0,0,0,.83,2.54,2.59,2.59,0,0,0,2.26,1.05,2.36,2.36,0,0,0,1.56-1.64,12.07,12.07,0,0,1,.8-2.23,1.75,1.75,0,0,1,2-.91" style="fill:#e0e0e0"></path><path d="M383.66,219.51a6.38,6.38,0,0,1-.64.26l-1.85.71c-1.67.6-4,1.47-7,2.56l-24.41,8.77-.23.08-.09-.23-1.51-4.27-.78-2.2c-.29-.74-.61-1.46-.91-2.21-1.22-3-2.43-6-3.61-9.22-1.32-3.58-2.55-7.1-3.67-10.52a43.47,43.47,0,0,1-2.47-10.11,20,20,0,0,1,1.88-9.2,39.93,39.93,0,0,1,3.89-7.23,11.61,11.61,0,0,1,5.13-4.36,15.33,15.33,0,0,1,5-1c1.4-.07,2.48,0,3.22,0l.84,0a1,1,0,0,1,.28,0,1,1,0,0,1-.28,0l-.84,0c-.73,0-1.82,0-3.21.13a15.65,15.65,0,0,0-4.92,1,11.33,11.33,0,0,0-4.94,4.3,40.25,40.25,0,0,0-3.79,7.18,19.6,19.6,0,0,0-1.8,9,43.06,43.06,0,0,0,2.47,10c1.13,3.41,2.36,6.92,3.68,10.49,1.18,3.17,2.38,6.26,3.6,9.22.29.74.62,1.48.9,2.21s.52,1.48.78,2.21l1.5,4.29-.31-.15,24.48-8.6,7-2.43,1.89-.62A3.2,3.2,0,0,1,383.66,219.51Z" style="fill:#263238"></path><path d="M326,157.43a2.32,2.32,0,0,1,.26.56c.18.43.4,1,.67,1.65a60.58,60.58,0,0,1,1.95,6.26,68.56,68.56,0,0,1,1.64,9.58,65.6,65.6,0,0,1,0,11.91,66.62,66.62,0,0,1-1.69,10,65.65,65.65,0,0,1-2.66,8.21l-.12.3-.22-.23-6-6.15-1.63-1.71a6,6,0,0,1-.55-.63,3.59,3.59,0,0,1,.63.54l1.72,1.64,6.15,6-.34.07A67,67,0,0,0,330,175.53a72.62,72.62,0,0,0-1.53-9.54c-.64-2.68-1.29-4.82-1.78-6.28-.24-.69-.43-1.24-.57-1.68A2.43,2.43,0,0,1,326,157.43Z" style="fill:#263238"></path><path d="M283.89,165.77a2.85,2.85,0,0,1,0,.51l-.12,1.43c-.1,1.24-.26,3-.4,5.25-.29,4.44-.49,10.58-.32,17.37.14,5.84.48,11.2.78,15.34l-.39-.06,2.68-6.19c.3-.68.56-1.24.76-1.68a3,3,0,0,1,.3-.58,2.62,2.62,0,0,1-.19.62c-.18.46-.4,1-.66,1.73l-2.52,6.25-.31.78-.08-.84c-.36-4.14-.75-9.5-.89-15.36a163.25,163.25,0,0,1,.47-17.41c.2-2.22.4-4,.57-5.25.09-.56.16-1,.22-1.41A1.63,1.63,0,0,1,283.89,165.77Z" style="fill:#263238"></path><path d="M337.74,231.64a4,4,0,0,1,.3,1c.17.67.35,1.65.54,2.88a47.46,47.46,0,0,1,.45,9.66,50.13,50.13,0,0,1-1.49,9.56c-.31,1.2-.6,2.16-.83,2.81a4.44,4.44,0,0,1-.39,1c-.09,0,.33-1.49.86-3.9a60.32,60.32,0,0,0,1.33-9.5,58.66,58.66,0,0,0-.29-9.59C337.94,233.16,337.66,231.66,337.74,231.64Z" style="fill:#263238"></path><path d="M345.25,244.3a25.14,25.14,0,0,1-1.41,5,25.11,25.11,0,0,1-1.9,4.83,27.14,27.14,0,0,1,1.41-5A25.74,25.74,0,0,1,345.25,244.3Z" style="fill:#263238"></path><g style="opacity:0.30000000000000004"><path d="M275.28,215.09a19.87,19.87,0,0,0,.15-12c-.28-.91-.52-2.13.31-2.61a1.36,1.36,0,0,1,1.65.44,3.57,3.57,0,0,1,.65,1.72,28.14,28.14,0,0,1,.32,7.72c-.16-.72.75-1.32,1.46-1.1a2.31,2.31,0,0,1,1.36,1.63,17.09,17.09,0,0,0,.6,2.12c.82,1.75,3,2.39,4.87,2.71s4,.64,5.24,2.15l-14.07-3.76a3.34,3.34,0,0,0-1.71-.15,1.15,1.15,0,0,0-.9,1.27"></path></g><g style="opacity:0.30000000000000004"><path d="M283.71,205.34a4.64,4.64,0,0,0,.87,2.79,38.18,38.18,0,0,0,2.88-5.53,11.16,11.16,0,0,0,2.51,4.65,41.31,41.31,0,0,0-2-9.39c-.06-.16-.17-.36-.34-.33s-.17.13-.22.23l-3.69,7.39"></path></g><g style="opacity:0.30000000000000004"><path d="M317.23,198.17a36.14,36.14,0,0,0,9.8,13.75,36.71,36.71,0,0,0,4.36-15.27,109.48,109.48,0,0,0-.22-16,87.73,87.73,0,0,1-5.29,24.58l-8.51-8.08"></path></g><g style="opacity:0.30000000000000004"><path d="M336.32,258.59a51.74,51.74,0,0,0,3.62-18.27c0-1.13.14-2.51,1.16-3a2.2,2.2,0,0,1,2.46.83c1.22,1.47,1.2,3.6,1,5.51A36.47,36.47,0,0,1,340.17,257s-4.19,1.63-3.85,1.55"></path></g><g style="opacity:0.30000000000000004"><path d="M338.79,202.22a275.14,275.14,0,0,1,7.43,29.24c.43,2.17.89,4.47,2.41,6.07s4.82,1.68,6.13-.09l-2.27-6.86c-.7.18-2.22.74-2.92.91l-10.59-30"></path></g><path d="M344.66,196.89a19.48,19.48,0,0,1,.64-4.4,19.35,19.35,0,0,1,1.14-4.3,19.1,19.1,0,0,1-.63,4.4A19.23,19.23,0,0,1,344.66,196.89Z" style="fill:#fafafa"></path><path d="M355,210.16a20.63,20.63,0,0,1-3.91-2.48,20.86,20.86,0,0,1-3.61-2.9,20,20,0,0,1,3.91,2.48A21.49,21.49,0,0,1,355,210.16Z" style="fill:#fafafa"></path><path d="M360.24,197.2a14.62,14.62,0,0,1,.27-5,14.19,14.19,0,0,1,1.49-4.8c.14.05-.5,2.19-1,4.89S360.39,197.2,360.24,197.2Z" style="fill:#fafafa"></path><path d="M367.51,213.15a17.18,17.18,0,0,1,1.37-4.05,18.14,18.14,0,0,1,1.85-3.84,35.3,35.3,0,0,1-3.22,7.89Z" style="fill:#fafafa"></path><path d="M358.62,222.64a32.34,32.34,0,0,1-7.25-3.7,16,16,0,0,1,3.75,1.62A15.77,15.77,0,0,1,358.62,222.64Z" style="fill:#fafafa"></path><path d="M357.82,179a9.41,9.41,0,0,1-3.44-.73,9.13,9.13,0,0,1-3.16-1.53,17.48,17.48,0,0,1,3.33,1A16.78,16.78,0,0,1,357.82,179Z" style="fill:#fafafa"></path><path d="M335.29,174.18a21.55,21.55,0,0,1,3.54-5.63,21.55,21.55,0,0,1-3.54,5.63Z" style="fill:#fafafa"></path><path d="M325.77,171.29c-.13.07-.77-.89-1.44-2.13a6.63,6.63,0,0,1-1-2.38c.13-.07.77.89,1.44,2.13A6.63,6.63,0,0,1,325.77,171.29Z" style="fill:#fafafa"></path><path d="M326.91,190.11a9.71,9.71,0,0,1-2.08,2.28,9.37,9.37,0,0,1-2.43,1.91,18.21,18.21,0,0,1,4.51-4.19Z" style="fill:#fafafa"></path><path d="M328.21,217.63A14.63,14.63,0,0,1,322.4,212a40,40,0,0,1,2.87,2.85C326.86,216.4,328.29,217.51,328.21,217.63Z" style="fill:#fafafa"></path><path d="M335.08,216.18a33.34,33.34,0,0,1,2.41-8.05,34.58,34.58,0,0,1-2.41,8.05Z" style="fill:#fafafa"></path><path d="M331.9,235a22.14,22.14,0,0,1-2-3.18,21,21,0,0,1-1.87-3.26A16.09,16.09,0,0,1,331.9,235Z" style="fill:#fafafa"></path><path d="M342.55,230.52a31.81,31.81,0,0,1-1.18-4.09,31.24,31.24,0,0,1-1.13-4.11,12.6,12.6,0,0,1,1.63,4A12.16,12.16,0,0,1,342.55,230.52Z" style="fill:#fafafa"></path><path d="M337.37,251a15.17,15.17,0,0,1-5.28-2,8,8,0,0,1,2.74.77A8.13,8.13,0,0,1,337.37,251Z" style="fill:#fafafa"></path><path d="M354.44,249.51a21.1,21.1,0,0,1-6.6.3,10.33,10.33,0,0,1,3.29-.41A11,11,0,0,1,354.44,249.51Z" style="fill:#fafafa"></path><path d="M361.18,287.18a11.1,11.1,0,0,1,1.14-3.17,10.87,10.87,0,0,1,1.6-2.95,10.88,10.88,0,0,1-1.13,3.17A10.73,10.73,0,0,1,361.18,287.18Z" style="fill:#fafafa"></path><path d="M348.8,287.51a10.64,10.64,0,0,1-5.47-4.83c.13-.09,1.15,1.19,2.65,2.51S348.88,287.37,348.8,287.51Z" style="fill:#fafafa"></path><path d="M364.91,300.55a10.64,10.64,0,0,1-2.29,4.11,10.87,10.87,0,0,1-3.52,3.12c-.1-.12,1.52-1.45,3.11-3.45S364.77,300.49,364.91,300.55Z" style="fill:#fafafa"></path><path d="M369.35,313.49a8.75,8.75,0,0,1-2.3-1.88,8.52,8.52,0,0,1-1.94-2.26,8.75,8.75,0,0,1,2.3,1.88A8.88,8.88,0,0,1,369.35,313.49Z" style="fill:#fafafa"></path><path d="M269.43,185.26a13.36,13.36,0,0,1-4.84,1.1,13.55,13.55,0,0,1-5-.25c0-.15,2.22,0,4.92-.27S269.4,185.11,269.43,185.26Z" style="fill:#fafafa"></path><path d="M275,184.63a21.84,21.84,0,0,1,.42-4.76,22.58,22.58,0,0,1,.94-4.7,22.69,22.69,0,0,1-.42,4.77A22.38,22.38,0,0,1,275,184.63Z" style="fill:#fafafa"></path><path d="M281.06,200.88a12.67,12.67,0,0,1-4.23-6.73c.14-.06.84,1.58,2,3.43S281.17,200.77,281.06,200.88Z" style="fill:#fafafa"></path><path d="M289.08,212.17c.07.12-.79.75-2,1.16a3.85,3.85,0,0,1-2.32.29,8.83,8.83,0,0,1,2.16-.78A8.58,8.58,0,0,1,289.08,212.17Z" style="fill:#fafafa"></path><path d="M285.35,192.21a6.87,6.87,0,0,1-.12-2.68,7.05,7.05,0,0,1,.41-2.64,14,14,0,0,1-.29,5.32Z" style="fill:#fafafa"></path><path d="M228.38,237.07s8.66-25.5,23.7-23.14a49.21,49.21,0,0,0,21.64-1.28l19.66,5s6.6,8.32,5.11,16.53c-1.3,7.15-4.32,19.7-7.93,24-1.43,1.71-13.5,12.92-14.46,22.52-1.3,13-4,17.14-9.56,17.14l-22.1-5.59s-14.6-4.92-19.21-17.33C220,261,227.44,238.85,228.38,237.07Z" style="fill:#455a64"></path><path d="M294.23,218.2a1.14,1.14,0,0,1-.31-.06l-.87-.21-3.35-.86-12.29-3.27.24-.23a47.72,47.72,0,0,1,1.1,16.34,50.13,50.13,0,0,1-6.12,18.81,56.45,56.45,0,0,1-6.2,8.89,63.47,63.47,0,0,0-6.1,7.93,19.42,19.42,0,0,0-1.9,4.2,24.66,24.66,0,0,0-.85,4.29c-.32,2.82-.37,5.49-.72,7.9a18.39,18.39,0,0,1-1.88,6.29,10.67,10.67,0,0,1-3.27,3.72,7.63,7.63,0,0,1-2.85,1.28,4.27,4.27,0,0,1-1.09.12s.37,0,1.06-.22a8.39,8.39,0,0,0,2.77-1.34,10.71,10.71,0,0,0,3.12-3.7,18.25,18.25,0,0,0,1.78-6.2c.32-2.39.35-5.05.65-7.9a24.9,24.9,0,0,1,.84-4.37,19.73,19.73,0,0,1,1.93-4.32,64.5,64.5,0,0,1,6.12-8,57,57,0,0,0,6.14-8.81,50.33,50.33,0,0,0,6.09-18.62,47.88,47.88,0,0,0-1-16.19l-.08-.32.31.09,12.24,3.43,3.33,1,.86.26A1.21,1.21,0,0,1,294.23,218.2Z" style="fill:#263238"></path><path d="M300,267.25s2.21-3.64,4.89-2.91,2.27,3.05,1.38,4.45-2.8,4.34-2.8,4.34l-1.49-.61-2-4.64" style="fill:#ffbe9d"></path><path d="M252.13,258.85c.45.11,48.82,24.28,48.82,24.28l4-14.93-46-25.43-6.89,15.35" style="fill:#455a64"></path><path d="M252.08,258.12a1,1,0,0,1,.09-.27c.09-.2.2-.46.33-.79l1.32-3c1.17-2.67,2.87-6.51,5-11.33l.07-.17.16.09,46,25.36.17.09-.05.2-.07.29-3.94,14.63-.08.31-.28-.14L266,265.88l-10.2-5.14-2.73-1.39-.7-.36-.24-.14a.84.84,0,0,1,.25.09l.73.32,2.77,1.32,10.27,5,34.91,17.31-.36.16c1.26-4.68,2.57-9.6,3.92-14.64l.08-.28.12.29-45.93-25.52.24-.07L254,254.1l-1.39,3c-.16.32-.28.57-.37.77Z" style="fill:#263238"></path><path d="M250.12,258.44l.5-.8c-.41,1.8-.69,4,.77,5.18s3.6.33,4.94-.92c1.93-1.8,3-4.31,4-6.74,2-4.71,4-9.62,3.68-14.71-.1-1.6-.65-3.45-2.17-3.95-1.74-.56-3.38,1-4.52,2.46" style="fill:#263238"></path><path d="M332.42,277.13a2.87,2.87,0,0,1-.1-2.89c.37-.67,1-1.22,1.06-2,.07-.94-.83-1.66-1.68-2.07a2.62,2.62,0,0,0-2.49-.17,2.39,2.39,0,0,0-.87,2.1,11.66,11.66,0,0,1,.05,2.36,1.75,1.75,0,0,1-1.52,1.56" style="fill:#e0e0e0"></path><path d="M325.15,274.35a2.89,2.89,0,0,1-.09-2.9c.36-.66,1-1.21,1.06-2,.06-.94-.83-1.66-1.69-2.07a2.61,2.61,0,0,0-2.49-.17,2.38,2.38,0,0,0-.86,2.09,12.54,12.54,0,0,1,.05,2.37,1.76,1.76,0,0,1-1.52,1.56" style="fill:#e0e0e0"></path><path d="M317.63,271.77a2.89,2.89,0,0,1,.53-2.85c.5-.56,1.25-1,1.46-1.69.27-.91-.45-1.8-1.19-2.39a2.63,2.63,0,0,0-2.4-.71,2.38,2.38,0,0,0-1.29,1.86,11.93,11.93,0,0,1-.47,2.32,1.74,1.74,0,0,1-1.82,1.19" style="fill:#e0e0e0"></path><path d="M303.13,267.2s6.1,1.17,7.49-.78c0,0,7.18,7.65,21.38,7.24l4,1.25s1.53,15,0,18.38-11.42,12.8-11.42,12.8L321,304.42s-3.48-5.84-8.77-8.49S301,290.64,301,290.64l-2.18-8.86,4.35-14.58" style="fill:#455a64"></path><path d="M332,273.66a6.74,6.74,0,0,1,.11,1.36c0,.89.06,2.16.08,3.74,0,3.15.1,7.49-.17,12.32a4.21,4.21,0,0,1-.46,1.8,10.91,10.91,0,0,1-.91,1.52c-.66.93-1.36,1.78-2,2.57-1.38,1.58-2.7,2.92-3.82,4s-2.06,2-2.72,2.56a6,6,0,0,1-1.07.86,8.39,8.39,0,0,1,.93-1l2.6-2.67c1.08-1.14,2.37-2.5,3.71-4.08.67-.79,1.36-1.64,2-2.55a9.7,9.7,0,0,0,.86-1.45,3.63,3.63,0,0,0,.41-1.62c.27-4.78.25-9.14.32-12.28,0-1.5.06-2.75.08-3.73A6.46,6.46,0,0,1,332,273.66Z" style="fill:#263238"></path><path d="M327,282.25c-.07.13-14.39-7.42-32-16.85s-31.79-17.18-31.73-17.31,14.38,7.42,32,16.85S327.1,282.12,327,282.25Z" style="fill:#ebebeb"></path><path d="M325.78,284.07c-.06.13-14.38-7.18-32-16.33s-31.8-16.68-31.73-16.81,14.38,7.19,32,16.34S325.85,284,325.78,284.07Z" style="fill:#ebebeb"></path><path d="M324.66,286.64c-.07.13-14.38-7.18-32-16.33S260.9,253.63,261,253.5s14.37,7.19,32,16.34S324.72,286.52,324.66,286.64Z" style="fill:#ebebeb"></path><path d="M323.53,289.22c-.06.12-14.38-7.19-32-16.34s-31.79-16.68-31.73-16.81,14.38,7.19,32,16.34S323.6,289.09,323.53,289.22Z" style="fill:#ebebeb"></path><path d="M322.41,291.79c-.07.12-14.38-7.19-32-16.34s-31.79-16.68-31.72-16.8,14.37,7.18,32,16.34S322.48,291.66,322.41,291.79Z" style="fill:#ebebeb"></path><path d="M291.61,259.9c-.5-.15-8.28,4.13-8.28,4.13l-4.82,7.68,5.56,10.38L300,287.42s-.8-6.37-2.91-6.9a6.9,6.9,0,0,1-3.35-2l-.23-5.76s3-2,3.45-4.19-1-1.57-1-1.57L289,269.41s5.76-3.67,5.87-4.82-1.36-2-1.36-2l-1.47-.11S294.44,260.76,291.61,259.9Z" style="fill:#ffbe9d"></path><path d="M283,274.83a5.07,5.07,0,0,1-.09-2.46,7.86,7.86,0,0,1,.73-2.58c.39-.91.76-2,1.32-3a7.23,7.23,0,0,1,1-1.43,5.78,5.78,0,0,1,1.29-1,17.81,17.81,0,0,1,2.36-1.25,5.88,5.88,0,0,1,2.39-.59c0,.09-.9.28-2.24.93a21.24,21.24,0,0,0-2.25,1.31,5.09,5.09,0,0,0-1.17.94,6.91,6.91,0,0,0-.91,1.33c-.53,1-.91,2-1.33,2.92a8.65,8.65,0,0,0-.81,2.45C283,273.89,283.05,274.82,283,274.83Z" style="fill:#eb996e"></path><path d="M286.84,278.44c-.2,0,.14-2.08.74-4.54.29-1.24.58-2.35.8-3.15a6.35,6.35,0,0,1,.41-1.29c.21,0-.11,2.1-.71,4.56-.29,1.23-.59,2.34-.81,3.14A5.2,5.2,0,0,1,286.84,278.44Z" style="fill:#eb996e"></path><path d="M290.69,235.29a2.73,2.73,0,0,1,.76,0,4.42,4.42,0,0,1,2.09.65l0,0,0,0a21.77,21.77,0,0,1-11,4.66,5.6,5.6,0,0,1-2,0,2.74,2.74,0,0,1-1-.44,1.45,1.45,0,0,1-.55-1,2.26,2.26,0,0,1,1.07-1.92c.6-.47,1.26-.84,1.91-1.26,2.6-1.63,5.57-3.32,9-3.59a10.09,10.09,0,0,1,3.43.31,4.78,4.78,0,0,1,2.77,1.84,2.76,2.76,0,0,1,.07,3.12,7.43,7.43,0,0,1-2.38,2,33.52,33.52,0,0,1-16.93,4.88c-1.7,0-2.63-.1-2.63-.1s.23,0,.68,0,1.1,0,1.94,0a34.7,34.7,0,0,0,7.08-.93,33.34,33.34,0,0,0,9.76-4,7,7,0,0,0,2.31-1.91,2.56,2.56,0,0,0-.07-2.9,4.56,4.56,0,0,0-2.66-1.75,9.87,9.87,0,0,0-3.35-.3c-3.4.26-6.35,1.93-8.94,3.55-.65.41-1.32.79-1.9,1.24a2.08,2.08,0,0,0-1,1.74,1.58,1.58,0,0,0,1.39,1.25,5.5,5.5,0,0,0,2,0,21.91,21.91,0,0,0,11-4.56V236a4.34,4.34,0,0,0-2.06-.67c-.24,0-.43,0-.56,0Z" style="fill:#263238"></path><path d="M298,226.29s-.07,0-.2,0l-.56-.06c-.49,0-1.2-.11-2.08-.17a38.76,38.76,0,0,0-6.85.22,38.23,38.23,0,0,0-6.69,1.45c-.84.27-1.51.5-2,.67l-.54.19c-.12,0-.19.06-.19,0l.18-.09.52-.22c.45-.2,1.12-.46,2-.74a34.37,34.37,0,0,1,13.6-1.67c.88.07,1.59.15,2.08.23l.56.1Z" style="fill:#263238"></path><path d="M295.17,221.8a4,4,0,0,1-.62.15c-.41.09-1,.19-1.72.3a33.4,33.4,0,0,1-5.74.27,32.86,32.86,0,0,1-5.7-.74c-.71-.16-1.29-.31-1.68-.43a3,3,0,0,1-.61-.21,3.72,3.72,0,0,1,.63.13c.4.1,1,.22,1.69.37a38.44,38.44,0,0,0,5.68.67,37.39,37.39,0,0,0,5.71-.21c.73-.08,1.32-.16,1.72-.23A4.12,4.12,0,0,1,295.17,221.8Z" style="fill:#263238"></path><path d="M295.79,247.23a.85.85,0,0,1-.22.12l-.63.28a24.29,24.29,0,0,1-2.38.91,33.17,33.17,0,0,1-8.23,1.62,33.75,33.75,0,0,1-8.37-.51,25.22,25.22,0,0,1-2.48-.59l-.66-.2-.23-.08.24,0,.67.16c.58.15,1.43.34,2.48.52a35.44,35.44,0,0,0,8.34.45,35,35,0,0,0,8.2-1.55c1-.32,1.84-.62,2.39-.84l.65-.25A1.15,1.15,0,0,1,295.79,247.23Z" style="fill:#263238"></path><path d="M264.82,273.45s.09.14.24.41a7.37,7.37,0,0,1,.53,1.25,2.67,2.67,0,0,1-.11,2.13,2,2,0,0,1-1,.93,1.46,1.46,0,0,1-1.48-.23,3.74,3.74,0,0,1-1-1.36A12.72,12.72,0,0,1,260.8,271a6.39,6.39,0,0,1,.32-2.14,1.56,1.56,0,0,1,.75-.87,1.36,1.36,0,0,1,1.18,0,4.58,4.58,0,0,1,1.68,1.62,11.58,11.58,0,0,1,1.16,2.1,11.41,11.41,0,0,1,0,8.91,4.71,4.71,0,0,1-1.14,1.72,1.94,1.94,0,0,1-1.87.46,5.28,5.28,0,0,1-2.56-2.28,10.68,10.68,0,0,1-1.76-4.66,8,8,0,0,1-.05-1.83s0,.16,0,.47a13.06,13.06,0,0,0,.12,1.35,11,11,0,0,0,1.8,4.59,5.23,5.23,0,0,0,2.49,2.2,1.78,1.78,0,0,0,1.7-.44,4.55,4.55,0,0,0,1.08-1.66,11.28,11.28,0,0,0,0-8.75,11.16,11.16,0,0,0-1.14-2.06,4.45,4.45,0,0,0-1.59-1.55,1.16,1.16,0,0,0-1,0,1.38,1.38,0,0,0-.66.76A6.11,6.11,0,0,0,261,271a12.39,12.39,0,0,0,.54,3.88,11.69,11.69,0,0,0,.65,1.66,3.6,3.6,0,0,0,.92,1.31,1.31,1.31,0,0,0,1.34.23,1.88,1.88,0,0,0,.93-.87,2.59,2.59,0,0,0,.14-2A14.21,14.21,0,0,0,264.82,273.45Z" style="fill:#263238"></path><path d="M271.73,296.05a9.68,9.68,0,0,0-1.11-2.79,8.51,8.51,0,0,0-2.16-2.41,8.42,8.42,0,0,0-3.63-1.55,17.9,17.9,0,0,1-3.94-.93,6.74,6.74,0,0,1-2.57-2.06,6.45,6.45,0,0,1-1-2,4,4,0,0,1-.17-.79,7.41,7.41,0,0,0,1.32,2.68,6.71,6.71,0,0,0,2.54,2,18.46,18.46,0,0,0,3.9.91,8.36,8.36,0,0,1,3.7,1.6,8.47,8.47,0,0,1,2.18,2.48,7.51,7.51,0,0,1,.84,2.06A4.22,4.22,0,0,1,271.73,296.05Z" style="fill:#263238"></path><path d="M271,269.14s0,.34,0,.93a16.4,16.4,0,0,0,.18,2.52,47,47,0,0,0,2.25,8,23.92,23.92,0,0,1,1.5,8.23,11,11,0,0,1-.38,2.52,7.72,7.72,0,0,1-.31.88s.09-.32.23-.9a12.38,12.38,0,0,0,.31-2.51,24.82,24.82,0,0,0-1.55-8.15,43.46,43.46,0,0,1-2.2-8.09A12,12,0,0,1,271,269.14Z" style="fill:#263238"></path><path d="M276.23,278.16s-.08-.09-.2-.28-.26-.46-.43-.81a12.59,12.59,0,0,1-1-2.89,13.07,13.07,0,0,1-.27-3c0-.39.05-.7.08-.92s.05-.33.07-.33,0,.48,0,1.25a15.27,15.27,0,0,0,1.22,5.86C276,277.72,276.26,278.14,276.23,278.16Z" style="fill:#263238"></path><path d="M261.66,296.5a2.5,2.5,0,0,1-.43-.14,9.24,9.24,0,0,1-1.11-.53,11.12,11.12,0,0,1-3.1-2.62,11.32,11.32,0,0,1-2-3.55,7.65,7.65,0,0,1-.3-1.2,2.34,2.34,0,0,1-.06-.44s.15.62.5,1.59a12.28,12.28,0,0,0,2,3.47,12,12,0,0,0,3,2.62C261.08,296.23,261.68,296.46,261.66,296.5Z" style="fill:#263238"></path><path d="M241.58,216.67S220.69,260.53,219.85,263,209,319.51,209,319.51l15.33,8s22.47-56.17,22.24-57.72,23.59-46.46,23.59-46.46Z" style="fill:#ffbe9d"></path><path d="M245.86,206.1l-9,17.55,31.25,8.2s8-18.78,8.58-19.2S274.59,199,274.59,199Z" style="fill:#92E3A9"></path><path d="M270.74,194.28a6.1,6.1,0,0,1,.94,1.13,28,28,0,0,1,2.15,3.39,26.21,26.21,0,0,1,2.25,5.52,22.92,22.92,0,0,1,.68,3.47,10,10,0,0,1,.05,1.9,15.9,15.9,0,0,1-.33,1.91,46,46,0,0,1-2.29,6.92c-.84,2.08-1.67,3.91-2.39,5.44s-1.35,2.75-1.79,3.58a7.54,7.54,0,0,1-.74,1.27,8.14,8.14,0,0,1,.56-1.36c.42-.95,1-2.17,1.63-3.64s1.47-3.39,2.28-5.46a50.67,50.67,0,0,0,2.23-6.86c.72-2.47.16-4.9-.36-7A27.54,27.54,0,0,0,273.5,199a38.89,38.89,0,0,0-2-3.44A10.08,10.08,0,0,1,270.74,194.28Z" style="fill:#263238"></path><path d="M277.34,198.81a6.7,6.7,0,0,1,.84,2.05,16.8,16.8,0,0,1,.62,5.32,16.58,16.58,0,0,1-1.1,5.24,5.91,5.91,0,0,1-1,2,26.61,26.61,0,0,0,1.61-7.22A27.49,27.49,0,0,0,277.34,198.81Z" style="fill:#263238"></path><path d="M203,324.14s-2.5,1.12-3.21,2.41c-1.32,2.39,1.19,6.09,1.19,6.09s-1.36,1.1-1.16,2.37,4.21,7.42,5.25,7.9c4.78,2.18,18.24.12,18.24.12l4.54-.53s2-8.93,1.47-10.42-6.28-9.95-6.28-9.95L207.52,319S202.87,318.16,203,324.14Z" style="fill:#ffbe9d"></path><path d="M212.84,321.71a4,4,0,0,1,.18.92c.1.68.22,1.55.38,2.63l-.05-.09a39.45,39.45,0,0,0,6.72,4.93,13.44,13.44,0,0,1,3.42,4.4,15.71,15.71,0,0,1,1.15,2.82,2.62,2.62,0,0,1,0,1.69,1.94,1.94,0,0,1-1.39,1.05c-.43.11-.8.17-1.21.26a1.31,1.31,0,0,1-.73,0,2,2,0,0,1-.57-.39,19.24,19.24,0,0,1-1.54-1.81,15.16,15.16,0,0,0-3-3.19,9.49,9.49,0,0,0-3.59-1.47,7.29,7.29,0,0,1-1.82-.47,13.42,13.42,0,0,1-1.19-1.25c-2.81-3.21-4.43-5.32-4.3-5.41s.1.13.3.37l.9,1c.79.89,1.94,2.18,3.38,3.75a13.76,13.76,0,0,0,1.12,1.16,8.56,8.56,0,0,0,1.7.39,9.73,9.73,0,0,1,3.78,1.5,15.35,15.35,0,0,1,3.06,3.26c.49.59,1,1.23,1.5,1.75a.85.85,0,0,0,.86.3c.37-.08.8-.16,1.16-.26a1.39,1.39,0,0,0,1-.74,2.17,2.17,0,0,0,0-1.35,15.61,15.61,0,0,0-1.11-2.73,13.09,13.09,0,0,0-3.25-4.27,35.34,35.34,0,0,1-6.62-5.09l0,0v0c-.11-1.08-.19-2-.25-2.64A5.12,5.12,0,0,1,212.84,321.71Z" style="fill:#eb996e"></path><path d="M227.85,342.4s-.22.2-.71.18a2.1,2.1,0,0,1-1.68-1.06,7.19,7.19,0,0,1-.63-1.21,5.09,5.09,0,0,1-.26-.72,4.32,4.32,0,0,1-.12-.8,34.53,34.53,0,0,0-1-3.34c-.76-2.36-1.4-4.53-1.76-6.13a10,10,0,0,1-.4-2.62,20.25,20.25,0,0,1,.76,2.53c.44,1.56,1.14,3.69,1.9,6.07a27.77,27.77,0,0,1,.93,3.41,4.81,4.81,0,0,0,.09.76c.06.23.14.46.22.68a8.14,8.14,0,0,0,.54,1.18,2,2,0,0,0,1.39,1.05C227.59,342.45,227.83,342.35,227.85,342.4Z" style="fill:#eb996e"></path><path d="M218.3,343a9.59,9.59,0,0,1-2.64-.32,23.1,23.1,0,0,1-6-2.26,22.87,22.87,0,0,1-5.13-3.85,8.89,8.89,0,0,1-1.68-2.06,35.8,35.8,0,0,0,7.06,5.45A36.69,36.69,0,0,0,218.3,343Z" style="fill:#eb996e"></path><path d="M210,308.73,218,329.08l3.8,3.19-9.17-24.58a1.43,1.43,0,0,0-2-.77h0A1.43,1.43,0,0,0,210,308.73Z" style="fill:#92E3A9"></path><polygon points="222.28 340.12 223.82 343.54 226.12 345.09 226.34 342.68 224.72 339.07 222.28 340.12" style="fill:#92E3A9"></polygon><path d="M248.55,222.63a31.36,31.36,0,0,1-1.15-4.79,31.29,31.29,0,0,1-.89-4.85,18.62,18.62,0,0,1,1.4,4.74A18.81,18.81,0,0,1,248.55,222.63Z" style="fill:#fafafa"></path><path d="M265.74,215.23a15.9,15.9,0,0,1-5,1.38,15.5,15.5,0,0,1-5.16.22c0-.15,2.29-.28,5.08-.73S265.7,215.08,265.74,215.23Z" style="fill:#fafafa"></path><path d="M264.18,207c-.14.05-.76-1.64-1.8-3.57s-2.09-3.39-2-3.49a13.28,13.28,0,0,1,3.77,7.06Z" style="fill:#fafafa"></path><path d="M315.53,117.9l4.7,53.67a16.3,16.3,0,0,1-13.78,17.55h0a16.3,16.3,0,0,1-18.55-13.43l-1.68-10S273,165.81,270.7,153c-1.11-6.2-2.35-19.14-3.34-30.87a24.46,24.46,0,0,1,21.51-26.33h0A24.17,24.17,0,0,1,315.53,117.9Z" style="fill:#ffbe9d"></path><path d="M286.21,165.71a30.37,30.37,0,0,0,16-7.56s-2.43,9.93-15.48,10.9Z" style="fill:#eb996e"></path><path d="M273,131.18a1.87,1.87,0,0,0,2.08,1.57,1.8,1.8,0,0,0,1.63-2,1.86,1.86,0,0,0-2.08-1.56A1.79,1.79,0,0,0,273,131.18Z" style="fill:#263238"></path><path d="M271.21,128.07c.27.2,1.49-1.06,3.48-1.39s3.59.43,3.77.15c.08-.12-.22-.52-.93-.87a5.08,5.08,0,0,0-3.07-.42,4.93,4.93,0,0,0-2.71,1.4C271.22,127.51,271.08,128,271.21,128.07Z" style="fill:#263238"></path><path d="M292.51,128.76a1.85,1.85,0,0,0,2.08,1.56,1.77,1.77,0,0,0,1.62-2,1.86,1.86,0,0,0-2.08-1.56A1.77,1.77,0,0,0,292.51,128.76Z" style="fill:#263238"></path><path d="M290.74,125.21c.27.2,1.49-1.06,3.47-1.39s3.6.43,3.77.15c.09-.12-.21-.52-.92-.87a5.09,5.09,0,0,0-3.07-.42,4.93,4.93,0,0,0-2.71,1.4C290.75,124.65,290.61,125.12,290.74,125.21Z" style="fill:#263238"></path><path d="M286,141.09a12.61,12.61,0,0,0-3.31-.05c-.52,0-1,0-1.15-.32a2.64,2.64,0,0,1,.08-1.55c.28-1.31.56-2.67.86-4.1,1.17-5.83,1.92-10.59,1.69-10.63s-1.37,4.64-2.54,10.47c-.28,1.43-.54,2.8-.79,4.11a2.92,2.92,0,0,0,.07,2,1.31,1.31,0,0,0,1,.6,3.53,3.53,0,0,0,.88,0A13.28,13.28,0,0,0,286,141.09Z" style="fill:#263238"></path><path d="M292.05,141.49c-.33,0,0,2.19-1.56,4s-3.92,2-3.88,2.27c0,.14.58.34,1.55.2a5.41,5.41,0,0,0,3.26-1.78,4.77,4.77,0,0,0,1.17-3.34C292.52,142,292.19,141.45,292.05,141.49Z" style="fill:#263238"></path><path d="M289.34,119.72c.29.51,2.22-.07,4.59-.18s4.36.22,4.59-.32c.09-.25-.32-.7-1.16-1.1a8,8,0,0,0-7,.38C289.58,119,289.22,119.48,289.34,119.72Z" style="fill:#263238"></path><path d="M272,119.7c.41.4,1.71-.26,3.36-.51s3.08-.13,3.34-.64c.1-.25-.18-.68-.85-1a4.66,4.66,0,0,0-2.84-.35,4.72,4.72,0,0,0-2.56,1.28C271.91,119,271.78,119.5,272,119.7Z" style="fill:#263238"></path><path d="M299.24,106.3l.08,0a10.27,10.27,0,0,1,4.85,5.93,2.41,2.41,0,0,1,.08.25c1.12,3.59,1.65,7.35,2.79,10.93s3,7.1,6.18,9.18c1.29.86,3.38,1.24,4.1-.13a3.17,3.17,0,0,0,.17-1.76c-.78-9,.34-17.26-1.22-26.54a7.93,7.93,0,0,0-4.3-5.83c-2.18-1.07-4.79-2.12-6.78-.74s-4.12,5.89-5.51,7.88" style="fill:#263238"></path><path d="M312.2,124.66c.2-.13,8.42-4.09,9.6,4.77s-8,8.22-8,8S312.2,124.66,312.2,124.66Z" style="fill:#ffbe9d"></path><path d="M316.05,133.68s.17.09.45.17a1.53,1.53,0,0,0,1.15-.13c.89-.47,1.48-2.06,1.31-3.66a5.07,5.07,0,0,0-.72-2.15,1.81,1.81,0,0,0-1.32-1,.8.8,0,0,0-.86.54c-.08.27,0,.44-.05.46s-.21-.13-.18-.5a1,1,0,0,1,.27-.6,1.19,1.19,0,0,1,.82-.34,2.18,2.18,0,0,1,1.8,1.16,5.27,5.27,0,0,1,.86,2.39c.18,1.8-.51,3.59-1.74,4.13a1.65,1.65,0,0,1-1.44-.05C316.09,133.89,316,133.7,316.05,133.68Z" style="fill:#eb996e"></path><path d="M293.12,92.17a1.81,1.81,0,0,1,.57-.09,7.34,7.34,0,0,1,1.58.1A8.71,8.71,0,0,1,302.44,99a7.56,7.56,0,0,1,.17,1.57,1.71,1.71,0,0,1-.05.58c-.07,0-.05-.83-.38-2.08a9,9,0,0,0-7-6.6C294,92.17,293.12,92.24,293.12,92.17Z" style="fill:#455a64"></path><path d="M317.05,112.4a1.72,1.72,0,0,1-.7.29,3.59,3.59,0,0,1-2.05-.2,5.21,5.21,0,0,1-2.38-1.93,14.89,14.89,0,0,1-1.62-3.35,14.63,14.63,0,0,0-1.59-3.27,4.91,4.91,0,0,0-2.23-1.83,3.64,3.64,0,0,0-1.93-.25c-.46.08-.7.21-.72.17a1.61,1.61,0,0,1,.69-.31,3.52,3.52,0,0,1,2.06.14,5.06,5.06,0,0,1,2.41,1.88,14.45,14.45,0,0,1,1.65,3.34,16.2,16.2,0,0,0,1.56,3.29,5,5,0,0,0,2.2,1.87,3.61,3.61,0,0,0,1.92.3C316.79,112.48,317,112.36,317.05,112.4Z" style="fill:#455a64"></path><path d="M317.27,118.32s-.07,0-.21.08a4,4,0,0,1-.63.16,8.13,8.13,0,0,1-2.38.1A10.71,10.71,0,0,1,307.2,115a15.92,15.92,0,0,1-3.48-7,6.88,6.88,0,0,0-.35-1.28,1.56,1.56,0,0,0-.61-.73,1.4,1.4,0,0,0-.8-.2.89.89,0,0,1,.87.07,1.75,1.75,0,0,1,.72.77A6.39,6.39,0,0,1,304,108a16.58,16.58,0,0,0,3.49,6.82,10.93,10.93,0,0,0,6.61,3.61A12.86,12.86,0,0,0,317.27,118.32Z" style="fill:#455a64"></path><path d="M294.6,102.79c-1.84,3.14-5.48,4.65-8.88,5.95l-10.81,4.15a10.13,10.13,0,0,1-4,.93,3.42,3.42,0,0,1-3.21-2.21c-.52-1.86,1.14-3.56,2.71-4.68a42.59,42.59,0,0,1,13.21-6.32,12.91,12.91,0,0,1,6.18-.55,5.58,5.58,0,0,1,4.43,3.94" style="fill:#263238"></path><path d="M267.32,118.11l.06-.45c1.7-10.36,11.79-11.69,19.81-12.09s16.43,5.18,22.67,10.41a11.53,11.53,0,0,1,3.05,3.48,4.68,4.68,0,0,1,0,4.46c3.14-.36,3.83.56,6.38-1.31s1-8.15,1-8.15a29.23,29.23,0,0,1,6.12.74c5,1,6.42-1.76,6.48-4.67.05-2.19-1.46-4.77-5.93-8.42-5.43-4.42-9.25-8.71-16.35-11.77-6.12-2.63-12.61-3.19-19.27-3.1s-13.54,2.33-18,7.29c-3.88,4.32-5.52,10.14-7,15.74a16.94,16.94,0,0,0-.88,6.29c.25,2.11-.19,5.39,1.83,6" style="fill:#92E3A9"></path><path d="M299.81,96.74a4.88,4.88,0,0,1,1.14.08,9.31,9.31,0,0,1,1.33.23,15.73,15.73,0,0,1,1.73.44,23.33,23.33,0,0,1,4.3,1.78,26.29,26.29,0,0,1,4.67,3.27,26.77,26.77,0,0,1,3.8,4.25,22.92,22.92,0,0,1,2.28,4.06,15.89,15.89,0,0,1,.64,1.67,8.71,8.71,0,0,1,.38,1.29,4.29,4.29,0,0,1,.22,1.12c-.1,0-.46-1.57-1.58-3.93a24.92,24.92,0,0,0-2.33-3.93,28.37,28.37,0,0,0-3.75-4.14,28.92,28.92,0,0,0-4.56-3.24,25.28,25.28,0,0,0-4.18-1.85C301.42,97,299.79,96.85,299.81,96.74Z" style="fill:#263238"></path><path d="M280.13,89.82c.05.09-1,.63-2.45,1.9a14.24,14.24,0,0,0-4.5,13.43c.37,1.87.9,2.95.81,3a2.43,2.43,0,0,1-.42-.73,12.41,12.41,0,0,1-.75-2.18,13.7,13.7,0,0,1,4.62-13.79,13,13,0,0,1,1.91-1.29A2.39,2.39,0,0,1,280.13,89.82Z" style="fill:#263238"></path><path d="M317.23,93.72a9.42,9.42,0,0,1-1.46-.45c-.93-.31-2.26-.79-3.93-1.31a38.39,38.39,0,0,0-6-1.4,20,20,0,0,0-7.41.2,13.77,13.77,0,0,0-6.54,3.3,11.7,11.7,0,0,0-3.16,5.08,12.84,12.84,0,0,0-.57,4c0,1,.11,1.51.07,1.52s-.06-.13-.11-.38a8.17,8.17,0,0,1-.16-1.13,12,12,0,0,1,3.6-9.49,13.9,13.9,0,0,1,6.76-3.46,20.33,20.33,0,0,1,7.59-.17,36.21,36.21,0,0,1,6,1.53c1.67.57,3,1.1,3.89,1.47A8.42,8.42,0,0,1,317.23,93.72Z" style="fill:#263238"></path><path d="M312.12,102.64c.05-.06.49.73,0,1.93a4.61,4.61,0,0,1-1.26,1.74,18,18,0,0,1-2,1.56,17.2,17.2,0,0,1-5.87,2.86c-.06-.14,2.64-1.25,5.58-3.28,1.46-1,2.8-2,3.24-3A3.81,3.81,0,0,0,312.12,102.64Z" style="fill:#263238"></path><path d="M319.28,113.34a2.32,2.32,0,0,1-.22,1.38,6.13,6.13,0,0,1-2,2.72,6.33,6.33,0,0,1-3.13,1.29,2.37,2.37,0,0,1-1.39-.13c0-.09.53-.07,1.34-.24a7.16,7.16,0,0,0,2.86-1.33,7.25,7.25,0,0,0,2-2.45A10.27,10.27,0,0,1,319.28,113.34Z" style="fill:#263238"></path><path d="M331.16,110.57c-.07.06-.68-.62-1.84-1.51a15.73,15.73,0,0,0-10.64-3.18c-1.46.11-2.35.34-2.37.25a6.55,6.55,0,0,1,2.33-.62,14.16,14.16,0,0,1,10.91,3.27A6.53,6.53,0,0,1,331.16,110.57Z" style="fill:#263238"></path><path d="M267.8,116.24c0,.06-.32.06-.71-.19a2.53,2.53,0,0,1-1-1.47,3.76,3.76,0,0,1,0-2.4c.17,0,.21,1.07.51,2.25a2.91,2.91,0,0,0,.7,1.33C267.59,116,267.82,116.17,267.8,116.24Z" style="fill:#263238"></path><g style="opacity:0.30000000000000004"><path d="M301.77,97c5.51.19,10.56,3,15.33,5.73a18.61,18.61,0,0,1,4.36,3.14,6.4,6.4,0,0,1,1.94,4.86,4,4,0,0,1-3.37,3.64,23.77,23.77,0,0,0-15.85-16.74"></path></g><path d="M318.77,134.67s.39-.4,1.2-.25a1.81,1.81,0,0,1,1.15.8,1.94,1.94,0,0,1,.19,1.71A2,2,0,0,1,320,138.1a1.69,1.69,0,0,1-1.4-.18,1.25,1.25,0,0,1-.53-.79c0-.22,0-.34.05-.34s.1.51.67.81a1.41,1.41,0,0,0,1.06.05,1.51,1.51,0,0,0,.82-2.19,1.51,1.51,0,0,0-.84-.68C319.24,134.56,318.79,134.75,318.77,134.67Z" style="fill:#263238"></path><path d="M321.31,134.24c.05-.06.24,0,.47-.14a.79.79,0,0,0,.32-.89.85.85,0,0,0-.76-.61c-.3,0-.49.06-.54,0s.11-.28.52-.36a1.18,1.18,0,0,1,.71.12,1.13,1.13,0,0,1,.57.72,1.09,1.09,0,0,1-.68,1.37C321.47,134.57,321.25,134.28,321.31,134.24Z" style="fill:#263238"></path></g><g id="freepik--Table--inject-65"><rect x="105.68" y="342.21" width="158.39" height="10.18" style="fill:#455a64"></rect><rect x="116.06" y="345.99" width="10.25" height="108.89" style="fill:#455a64"></rect><rect x="247.24" y="345.99" width="10.25" height="108.89" style="fill:#455a64"></rect><rect x="105.68" y="342.21" width="65.42" height="10.18" style="fill:#263238"></rect><path d="M143.51,342.91a26.34,26.34,0,0,0-5.73.23,32.6,32.6,0,0,0-6,1.71c-2.19.84-4.54,1.93-7,3.09a60.18,60.18,0,0,1-7.16,2.88,25.63,25.63,0,0,1-6.2,1.21,15.81,15.81,0,0,1-4.25-.3,9.94,9.94,0,0,1-1.11-.3c-.26-.08-.39-.13-.38-.15a22,22,0,0,0,5.71.38,26.76,26.76,0,0,0,6.08-1.3,65.63,65.63,0,0,0,7.09-2.9c2.47-1.15,4.84-2.24,7.07-3.06a29.53,29.53,0,0,1,6.09-1.62,17.23,17.23,0,0,1,4.26-.13,10,10,0,0,1,1.14.16C143.38,342.86,143.52,342.89,143.51,342.91Z" style="fill:#455a64"></path><path d="M149.87,347s-.6.19-1.66.56a20.89,20.89,0,0,0-4.27,2,2.1,2.1,0,0,0-1,1,.58.58,0,0,0,.16.57,1.13,1.13,0,0,0,.67.26,7.94,7.94,0,0,0,1.77-.14c.61-.09,1.24-.22,1.88-.38a8.35,8.35,0,0,0,3.65-1.68,2.93,2.93,0,0,0,.91-1.76,2.12,2.12,0,0,0-.71-1.83c-1.06-1-2.66-1-4.05-.86a18.35,18.35,0,0,0-4,.86,30.56,30.56,0,0,0-6.3,3.09c-1.7,1.06-3,2-4,2.65a12,12,0,0,1-1.46,1,1.57,1.57,0,0,1,.33-.31c.23-.19.57-.47,1-.81.9-.7,2.19-1.69,3.89-2.8a28.75,28.75,0,0,1,6.34-3.23,17.8,17.8,0,0,1,4.13-.91,8.61,8.61,0,0,1,2.27,0,4,4,0,0,1,2.18,1,2.65,2.65,0,0,1,.88,2.26,3.45,3.45,0,0,1-1.08,2.08,8.83,8.83,0,0,1-3.88,1.77c-.66.16-1.3.29-1.94.38a7.86,7.86,0,0,1-1.88.11,1.51,1.51,0,0,1-.92-.39,1,1,0,0,1-.25-1,2.41,2.41,0,0,1,1.16-1.23,19.1,19.1,0,0,1,4.4-1.92c.55-.15,1-.25,1.27-.3A1.28,1.28,0,0,1,149.87,347Z" style="fill:#455a64"></path><path d="M164.7,342a3.58,3.58,0,0,1,.35,2.17,7.81,7.81,0,0,1-2.3,4.75,14,14,0,0,1-4.44,2.87,7.39,7.39,0,0,1-2.06.7,11,11,0,0,1,1.91-1,16.65,16.65,0,0,0,4.22-2.9,8.2,8.2,0,0,0,2.3-4.43A13.76,13.76,0,0,0,164.7,342Z" style="fill:#455a64"></path></g></svg>